<?xml version="1.0" encoding="utf-8"?>
<!-- Generator: Adobe Illustrator 23.0.1, SVG Export Plug-In . SVG Version: 6.00 Build 0)  -->
<svg version="1.1" id="Layer_1" xmlns="http://www.w3.org/2000/svg" xmlns:xlink="http://www.w3.org/1999/xlink" x="0px" y="0px"
	 viewBox="0 0 60 60" enable-background="new 0 0 60 60" xml:space="preserve">
<g>
	<path d="M54,0H6v44.8L0.1,58.6c-0.2,0.5,0,1.1,0.5,1.3C0.7,60,0.9,60,1,60h58c0.6,0,1-0.4,1-1c0-0.1,0-0.3-0.1-0.4L54,44.8V0z M8,2
		h44v8H8V2z M2.5,58l5.1-12H13v2.1c-2.1,0.6-3.4,2.7-2.9,4.9c0.6,2.1,2.7,3.4,4.9,2.9s3.4-2.7,2.9-4.9c-0.4-1.4-1.5-2.5-2.9-2.9V46
		h37.3l5.1,12H2.5z M14,53c0.6,0,1-0.4,1-1v-1.7c1,0.6,1.3,1.8,0.7,2.7c-0.6,1-1.8,1.3-2.7,0.7c-1-0.6-1.3-1.8-0.7-2.7
		c0.2-0.3,0.4-0.6,0.7-0.7V52C13,52.6,13.4,53,14,53z M52,44H15v-2h30c2.8,0,5-2.2,5-5V19c0-2.8-2.2-5-5-5H15c-2.8,0-5,2.2-5,5v18
		c0,0.2,0,0.4,0,0.5c-0.3,2,1,3.9,3,4.3V44H8V12h44V44z M12,34.5V19c0-1.7,1.3-3,3-3h30c1.7,0,3,1.3,3,3v18c0,1.7-1.3,3-3,3H17.5
		c0.2-0.3,0.3-0.7,0.4-1.1c0-0.1,0-0.1,0-0.2c0.4-2.1-1-4.2-3.1-4.6c-0.5-0.1-1-0.1-1.5,0c-0.1,0-0.1,0-0.2,0
		C12.7,34.2,12.3,34.3,12,34.5z M12,37.7L12,37.7c0-0.2,0.1-0.4,0.2-0.6c0,0,0-0.1,0-0.1c0-0.1,0.1-0.1,0.1-0.2c0,0,0.1-0.1,0.1-0.1
		s0.1-0.1,0.1-0.1s0.1-0.1,0.1-0.1s0.1-0.1,0.1-0.1c0.1,0,0.1-0.1,0.2-0.1c0,0,0.1,0,0.1-0.1c0.1,0,0.2-0.1,0.2-0.1c0,0,0.1,0,0.1,0
		c1.1-0.2,2.1,0.5,2.3,1.6c0.1,0.3,0.1,0.5,0,0.8c0,0,0,0.1,0,0.1c0,0.1,0,0.2-0.1,0.2c0,0,0,0.1-0.1,0.1c0,0.1-0.1,0.1-0.1,0.2
		c0,0-0.1,0.1-0.1,0.1s-0.1,0.1-0.1,0.1s-0.1,0.1-0.1,0.1s-0.1,0.1-0.1,0.1c-0.1,0-0.1,0.1-0.2,0.1c0,0-0.1,0-0.1,0
		c-0.1,0-0.2,0.1-0.3,0.1h0c-0.1,0-0.2,0.1-0.3,0.1h0c-0.1,0-0.2,0-0.3,0c-1.1,0-2-0.9-2-2C12,37.9,12,37.8,12,37.7z"/>
	<path d="M41,20h3v3c0,0.6,0.4,1,1,1s1-0.4,1-1v-3c0-1.1-0.9-2-2-2h-3c-0.6,0-1,0.4-1,1S40.4,20,41,20z"/>
	<circle cx="12" cy="6" r="2"/>
	<circle cx="17" cy="6" r="2"/>
	<circle cx="22" cy="6" r="2"/>
	<circle cx="44" cy="50" r="2"/>
	<circle cx="50" cy="50" r="2"/>
	<circle cx="40" cy="54" r="2"/>
	<circle cx="46" cy="54" r="2"/>
	<path d="M37,20c0.6,0,1-0.4,1-1s-0.4-1-1-1h0c-0.6,0-1,0.5-1,1C36,19.6,36.5,20,37,20z"/>
	<rect x="40" y="6" width="2" height="2"/>
	<rect x="44" y="6" width="2" height="2"/>
	<rect x="48" y="6" width="2" height="2"/>
	<rect x="22" y="52" width="2" height="2"/>
	<rect x="26" y="52" width="2" height="2"/>
	<rect x="30" y="52" width="2" height="2"/>
</g>
</svg>
