<svg xmlns="http://www.w3.org/2000/svg" xmlns:xlink="http://www.w3.org/1999/xlink" version="1.1" x="0px" y="0px" viewBox="0 0 100 125" enable-background="new 0 0 100 100" xml:space="preserve"><g><polygon points="54.999,65 54.999,55 54.999,45 54.999,35 54.999,25 55,15 55,5 45,5 35,5 35,15 34.999,25 34.999,35 34.999,45    34.999,55 34.999,65 44.999,65 44.999,75 34.999,75 34.999,85 44.999,85 44.999,95 54.999,95 54.999,85 64.999,85 64.999,75    54.999,75  "/><rect x="24.999" y="65" width="10" height="10"/><rect x="14.999" y="55" width="10" height="10"/><rect x="64.999" y="65" width="10" height="10"/><rect x="74.999" y="55" width="10" height="10"/></g><text x="0" y="115" fill="#000000" font-size="5px" font-weight="bold" font-family="'Helvetica Neue', Helvetica, Arial-Unicode, Arial, Sans-serif">Created by Louis Dawson</text><text x="0" y="120" fill="#000000" font-size="5px" font-weight="bold" font-family="'Helvetica Neue', Helvetica, Arial-Unicode, Arial, Sans-serif">from the Noun Project</text></svg>