<?xml version="1.0" encoding="utf-8"?>
<!-- Generator: Adobe Illustrator 23.0.1, SVG Export Plug-In . SVG Version: 6.00 Build 0)  -->
<svg version="1.1" id="Layer_1" xmlns="http://www.w3.org/2000/svg" xmlns:xlink="http://www.w3.org/1999/xlink" x="0px" y="0px"
	 viewBox="0 0 41.8 71.2" enable-background="new 0 0 41.8 71.2" xml:space="preserve">
<path d="M7.7,68.6c0.2,0.1,4.3,2.5,13.2,2.5s13-2.4,13.2-2.5c0.8-0.5,1.5-1.4,1.8-2.3l5.5-17.8c0.2-0.7,0.4-1.7,0.4-2.4l0-2.7
	c0-0.7-0.2-1.8-0.4-2.5l-7.1-19.2v-2.9c0-0.1,0-0.2,0-0.3c0-0.1,0-0.2,0-0.3c0-3.6-7.2-4.9-13.3-4.9c-0.6,0-1.2,0-1.8,0L14.3,1
	c-0.3-0.8-1.2-1.2-1.9-0.9c-0.8,0.3-1.2,1.2-0.9,1.9l4.4,11.5c-4.5,0.6-8.3,2-8.3,4.6c0,0.1,0,0.2,0,0.3c0,0.1,0,0.2,0,0.3v2.9
	L0.4,40.9C0.2,41.6,0,42.6,0,43.4l0,2.7c0,0.7,0.2,1.7,0.4,2.4l5.5,17.8C6.2,67.2,6.9,68.1,7.7,68.6z M33,65.4
	c-0.1,0.2-0.3,0.5-0.5,0.6c0,0-3.7,2.1-11.6,2.1S9.3,66.1,9.3,66.1c-0.2-0.1-0.4-0.5-0.5-0.6l-5-16.1c3.2,0.9,9.1,2.1,17.1,2.1
	c8,0,14-1.2,17.1-2.1L33,65.4z M10.6,21.5c2.7,1.1,6.7,1.6,10.3,1.6c3.1,0,7.4-0.4,10.3-1.6v0.4c-0.5,0.6-4,2.1-10.3,2.1
	s-9.8-1.4-10.3-2.1V21.5z M9.6,24.8c2.6,1.5,7.1,2.1,11.3,2.1s8.7-0.6,11.3-2.1l6.1,16.6c-2.5,0.8-8.8,2.3-17.4,2.3
	c-8.7,0-14.9-1.6-17.4-2.3L9.6,24.8z M20.9,46.7c8.7,0,15-1.5,17.9-2.3l0,1.5c-2.1,0.7-8.6,2.5-17.9,2.5C11.6,48.4,5.1,46.6,3,46
	l0-1.5C5.9,45.3,12.2,46.7,20.9,46.7z M17,16.4l0.5,1.3c0.2,0.6,0.8,1,1.4,1c0.2,0,0.4,0,0.5-0.1c0.8-0.3,1.2-1.2,0.9-1.9l-0.2-0.4
	c0.2,0,0.5,0,0.7,0c5.9,0,9.3,1.2,10.2,1.9c-0.8,0.7-4.3,1.9-10.2,1.9s-9.3-1.2-10.2-1.9C11.3,17.6,13.5,16.8,17,16.4z"/>
</svg>
