<?xml version="1.0" encoding="utf-8"?>
<!-- Generator: Adobe Illustrator 23.0.1, SVG Export Plug-In . SVG Version: 6.00 Build 0)  -->
<svg version="1.1" id="Layer_1" xmlns="http://www.w3.org/2000/svg" xmlns:xlink="http://www.w3.org/1999/xlink" x="0px" y="0px"
	 viewBox="0 0 65.6 102" enable-background="new 0 0 65.6 102" xml:space="preserve">
<g>
	<path d="M53,72.5C53,72.5,53,72.5,53,72.5C53,72.5,53,72.5,53,72.5c-1.8-1.4-3.8-2.6-5.8-3.5c0,0,0,0,0,0c-2.3-1.1-4.7-1.9-7.3-2.4
		l-0.4-4.3c2.5-0.6,4.9-1.9,7.3-3.8C56.2,51.1,62,35.8,62,26C62,11.6,50.5,0,36.3,0C23.8,0,13.1,9.2,10.9,21.5c-3.6,1.2-6,4.5-6,8.2
		c0,3.1,1.6,5.8,4.1,7.3v3.9c0,0.6,0.4,1,1,1s1-0.4,1-1v-2.9c0.5,0.2,1.1,0.3,1.7,0.4c2.4,7.4,6.4,14.1,11,18.5
		c2.1,2,4.3,3.6,6.5,4.5l-0.4,4.7c-2.3,0.2-4.5,0.6-6.7,1.2c0,0,0,0,0,0c-2.4,0.7-4.7,1.7-6.8,2.9c0,0,0,0,0,0
		C6.2,75.8,0,86.5,0,97.9v3.1c0,0.6,0.4,1,1,1h11.7h43.9h0h8c0.6,0,1-0.4,1-1v-3.1C65.6,87.9,61,78.7,53,72.5z M30.7,68.1
		c0.5,0,0.9-0.4,1-0.9l0.6-6.3c0-0.4-0.2-0.9-0.6-1c-2.2-0.9-4.4-2.3-6.5-4.4c-4.5-4.4-8.4-11-10.7-18.3c-0.1-0.4-0.5-0.7-0.9-0.7
		c-0.9,0-1.7-0.2-2.5-0.6v-2.6c0-0.6-0.4-1-1-1s-1,0.4-1,1v1.4c-1.3-1.2-2.1-2.9-2.1-4.8c0-3,2.1-5.7,5.2-6.5
		c0.4-0.1,0.7-0.4,0.7-0.8C14.5,10.8,24.6,2,36.3,2C49.4,2,60,12.7,60,26c0,9.4-5.5,24-14.4,31.1c-2.4,1.9-4.9,3.1-7.3,3.5
		c-0.5,0.1-0.9,0.6-0.8,1.1l0.5,5.9c0,0.5,0.4,0.8,0.8,0.9c2.4,0.4,4.7,1.1,6.9,2.1c0,0.1,0,0.3,0,0.4c0,0.2-0.1,0.4-0.1,0.7
		c0,0.3-0.1,0.5-0.1,0.8c0,0.2-0.1,0.4-0.1,0.7c-0.1,0.2-0.1,0.5-0.2,0.7c-0.1,0.2-0.1,0.4-0.2,0.6c-0.1,0.2-0.1,0.5-0.2,0.7
		c-0.1,0.2-0.1,0.4-0.2,0.6c-0.1,0.2-0.2,0.4-0.3,0.7c-0.1,0.2-0.2,0.4-0.2,0.6c-0.1,0.2-0.2,0.4-0.3,0.6c-0.1,0.2-0.2,0.4-0.3,0.5
		c-0.1,0.2-0.2,0.4-0.3,0.6c-0.1,0.2-0.2,0.3-0.3,0.5c-0.1,0.2-0.2,0.4-0.4,0.5c-0.1,0.2-0.2,0.3-0.3,0.5c-0.1,0.2-0.3,0.3-0.4,0.5
		c-0.1,0.1-0.2,0.3-0.4,0.4c-0.1,0.1-0.3,0.3-0.4,0.4c-0.1,0.1-0.2,0.3-0.4,0.4c-0.1,0.1-0.3,0.3-0.5,0.4c-0.1,0.1-0.3,0.2-0.4,0.3
		c-0.2,0.1-0.3,0.2-0.5,0.3c-0.1,0.1-0.3,0.2-0.4,0.3c-0.2,0.1-0.3,0.2-0.5,0.3c-0.1,0.1-0.3,0.1-0.4,0.2c-0.2,0.1-0.4,0.1-0.6,0.2
		c-0.1,0-0.3,0.1-0.4,0.1c-0.2,0.1-0.4,0.1-0.7,0.1c-0.1,0-0.2,0.1-0.3,0.1c-0.3,0-0.7,0.1-1,0.1c-0.4,0-0.7,0-1.1-0.1
		c-0.1,0-0.2-0.1-0.4-0.1c-0.2,0-0.5-0.1-0.7-0.2c-0.1,0-0.3-0.1-0.4-0.2c-0.2-0.1-0.4-0.1-0.6-0.2c-0.1-0.1-0.3-0.2-0.4-0.2
		c-0.2-0.1-0.4-0.2-0.5-0.3c-0.1-0.1-0.3-0.2-0.4-0.3c-0.2-0.1-0.3-0.2-0.5-0.4c-0.1-0.1-0.3-0.2-0.4-0.4c-0.2-0.1-0.3-0.3-0.5-0.4
		c-0.1-0.1-0.3-0.3-0.4-0.4c-0.1-0.2-0.3-0.3-0.4-0.5c-0.1-0.2-0.2-0.3-0.4-0.5c-0.1-0.2-0.3-0.3-0.4-0.5c-0.1-0.2-0.2-0.3-0.3-0.5
		c-0.1-0.2-0.2-0.4-0.4-0.6c-0.1-0.2-0.2-0.4-0.3-0.6c-0.1-0.2-0.2-0.4-0.3-0.6c-0.1-0.2-0.2-0.4-0.3-0.6c-0.1-0.2-0.2-0.4-0.3-0.7
		c-0.1-0.2-0.2-0.4-0.2-0.6c-0.1-0.2-0.2-0.5-0.2-0.7c-0.1-0.2-0.1-0.4-0.2-0.7c-0.1-0.2-0.1-0.5-0.2-0.8c-0.1-0.2-0.1-0.5-0.1-0.7
		c0-0.3-0.1-0.5-0.1-0.8c0-0.2-0.1-0.5-0.1-0.7c0-0.3-0.1-0.5-0.1-0.8c0-0.2,0-0.5,0-0.7c0-0.2,0-0.4,0-0.5
		C26.4,68.5,28.5,68.1,30.7,68.1z M2,97.9c0-10.2,5.3-19.7,13.9-25.2c0,0,0,0.1,0,0.1c0.1,1,0.2,1.9,0.2,2.9c0,0.1,0,0.3,0,0.4
		c0,1,0.1,1.9,0,2.9c0,0.2,0,0.3,0,0.5c0,1-0.1,1.9-0.1,2.9c0,0.2,0,0.3,0,0.5c-0.1,1-0.2,2-0.3,3c0,0.1,0,0.3-0.1,0.4
		c-0.2,1-0.3,2.1-0.5,3.1c0,0.1,0,0.2,0,0.2c-0.2,1.1-0.5,2.2-0.7,3.2c0,0,0,0.1,0,0.1c-0.3,1.1-0.6,2.2-0.9,3.2
		c0,0.1-0.1,0.2-0.1,0.4c-0.3,1-0.7,2.1-1.1,3.1c0,0.1-0.1,0.2-0.1,0.3H2C2,100,2,97.9,2,97.9z M14.2,100c0-0.1,0-0.1,0.1-0.2
		c0.4-1.1,0.7-2.2,1.1-3.2c0.1-0.2,0.1-0.3,0.2-0.5c0.3-1.1,0.6-2.1,0.9-3.2c0-0.2,0.1-0.3,0.1-0.5c0.3-1.1,0.5-2.1,0.7-3.2
		c0-0.2,0.1-0.3,0.1-0.5c0.2-1.1,0.4-2.1,0.5-3.2c0-0.1,0-0.2,0-0.3c0.1-1.1,0.2-2.2,0.3-3.3c0,0,0,0,0-0.1c0.1-1.1,0.1-2.2,0.1-3.3
		c0-0.1,0-0.2,0-0.2c0-1.1,0-2.1-0.1-3.1c0-0.1,0-0.3,0-0.4c-0.1-1-0.2-2-0.3-3c0-0.1,0-0.2,0-0.3c1.4-0.8,3-1.4,4.5-2
		c0,0.1,0,0.2,0,0.3c0,0.3,0,0.5,0.1,0.8c0,0.3,0.1,0.6,0.1,0.9c0,0.3,0.1,0.5,0.1,0.8c0.1,0.3,0.1,0.6,0.2,0.9
		c0.1,0.3,0.1,0.5,0.2,0.8c0.1,0.3,0.1,0.6,0.2,0.9c0.1,0.2,0.1,0.5,0.2,0.7c0.1,0.3,0.2,0.5,0.3,0.8c0.1,0.2,0.2,0.5,0.3,0.7
		c0.1,0.3,0.2,0.5,0.3,0.8c0.1,0.2,0.2,0.4,0.3,0.6c0.1,0.2,0.3,0.5,0.4,0.7c0.1,0.2,0.2,0.4,0.3,0.6c0.1,0.2,0.3,0.5,0.4,0.7
		c0.1,0.2,0.3,0.4,0.4,0.5c0.2,0.2,0.3,0.4,0.5,0.6c0.1,0.2,0.3,0.3,0.4,0.5c0.2,0.2,0.3,0.4,0.5,0.5c0.1,0.1,0.3,0.3,0.4,0.4
		c0.2,0.2,0.4,0.3,0.6,0.5c0.2,0.1,0.3,0.3,0.5,0.4c0.2,0.1,0.4,0.3,0.6,0.4c0.2,0.1,0.3,0.2,0.5,0.3c0.2,0.1,0.4,0.2,0.7,0.3
		c0.2,0.1,0.3,0.2,0.5,0.2c0.2,0.1,0.5,0.2,0.7,0.3c0.2,0.1,0.3,0.1,0.5,0.2c0.3,0.1,0.6,0.1,0.8,0.2c0.1,0,0.3,0.1,0.4,0.1
		c0.4,0.1,0.8,0.1,1.3,0.1c0.4,0,0.8,0,1.2-0.1c0.1,0,0.3-0.1,0.4-0.1c0.3,0,0.5-0.1,0.8-0.2c0.2,0,0.3-0.1,0.5-0.1
		c0.2-0.1,0.5-0.1,0.7-0.2c0.2-0.1,0.3-0.1,0.5-0.2c0.2-0.1,0.4-0.2,0.6-0.3c0.2-0.1,0.3-0.2,0.5-0.3c0.2-0.1,0.4-0.2,0.6-0.4
		c0.2-0.1,0.3-0.2,0.4-0.3c0.2-0.1,0.4-0.3,0.5-0.4c0.1-0.1,0.3-0.3,0.4-0.4c0.2-0.2,0.3-0.3,0.5-0.5c0.1-0.1,0.3-0.3,0.4-0.4
		c0.2-0.2,0.3-0.4,0.5-0.5c0.1-0.2,0.3-0.3,0.4-0.5c0.1-0.2,0.3-0.4,0.4-0.6c0.1-0.2,0.2-0.3,0.3-0.5c0.1-0.2,0.3-0.4,0.4-0.7
		c0.1-0.2,0.2-0.4,0.3-0.6c0.1-0.2,0.2-0.5,0.3-0.7c0.1-0.2,0.2-0.4,0.3-0.6c0.1-0.2,0.2-0.5,0.3-0.8c0.1-0.2,0.2-0.4,0.2-0.6
		c0.1-0.3,0.2-0.5,0.3-0.8c0.1-0.2,0.1-0.4,0.2-0.7c0.1-0.3,0.1-0.6,0.2-0.9c0.1-0.2,0.1-0.5,0.2-0.7c0.1-0.3,0.1-0.6,0.2-0.9
		c0-0.2,0.1-0.4,0.1-0.7c0,0,0-0.1,0-0.1c1.3,0.7,2.5,1.4,3.7,2.3c-0.1,0.6-0.1,1.2-0.1,1.8c0,0.4-0.1,0.8-0.1,1.2
		c0,0.8,0,1.7,0,2.6c0,0.3,0,0.5,0,0.8c0,1.1,0.1,2.2,0.2,3.4c0,0.3,0.1,0.6,0.1,0.8c0.1,0.8,0.2,1.7,0.3,2.5
		c0.1,0.4,0.2,0.9,0.2,1.3c0.1,0.7,0.2,1.4,0.4,2.1c0.1,0.5,0.2,0.9,0.3,1.4c0.2,0.7,0.3,1.4,0.5,2c0.1,0.5,0.3,1,0.4,1.5
		c0.2,0.7,0.4,1.3,0.6,2c0.2,0.5,0.3,1,0.5,1.5c0.1,0.4,0.3,0.8,0.4,1.3C55.2,100,14.2,100,14.2,100z M63.6,100h-6.3
		c-0.3-0.7-0.5-1.5-0.8-2.2c-0.1-0.3-0.2-0.6-0.3-0.9c-0.4-1.1-0.7-2.2-1-3.3c-0.1-0.3-0.1-0.6-0.2-0.9c-0.2-0.8-0.4-1.6-0.6-2.4
		c-0.1-0.4-0.2-0.8-0.2-1.2c-0.1-0.7-0.3-1.4-0.4-2c-0.1-0.4-0.1-0.9-0.2-1.3c-0.1-0.6-0.2-1.3-0.2-1.9c0-0.5-0.1-0.9-0.1-1.4
		c0-0.6-0.1-1.2-0.1-1.8c0-0.5,0-0.9,0-1.4c0-0.6,0-1.2,0-1.8c0-0.5,0-0.9,0-1.4c0-0.2,0-0.5,0-0.7c6.6,5.7,10.4,13.8,10.4,22.6
		C63.6,97.9,63.6,100,63.6,100z"/>
	<path d="M29.5,26.9c-1.1,0-1.9,0.7-1.9,1.6c0,0.9,0.8,1.6,1.9,1.6c1.1,0,1.9-0.7,1.9-1.6S30.6,26.9,29.5,26.9z"/>
	<path d="M48.3,26.9c-1.1,0-1.9,0.7-1.9,1.6c0,0.9,0.8,1.6,1.9,1.6c1.1,0,1.9-0.7,1.9-1.6S49.4,26.9,48.3,26.9z"/>
	<path d="M33.5,45.6c-0.4-0.4-1-0.4-1.4-0.1c-0.4,0.4-0.5,1-0.1,1.4c0.1,0.1,2,2.2,4.8,2.3c0.1,0,0.2,0,0.3,0c1.8,0,3.5-0.8,5-2.3
		c0.4-0.4,0.4-1,0-1.4c-0.4-0.4-1-0.4-1.4,0c-1.3,1.2-2.5,1.8-3.8,1.7C35,47.2,33.6,45.6,33.5,45.6z"/>
	<path d="M17.7,35.7c-0.2,0-0.3,0-0.5,0.1c-0.4,0.1-0.6,0.5-0.6,0.9c0,0,0,0,0,0c0,0,0,0,0,0.1c0,0.6,0.5,1.1,1.1,1.1
		s1.1-0.5,1.1-1.1S18.3,35.7,17.7,35.7z"/>
	<path d="M19.6,40.4c-0.6,0-1,0.4-1,1c0,0.3,0.1,0.6,0.3,0.7c0.2,0.2,0.5,0.4,0.8,0.4c0.6,0,1-0.4,1-1
		C20.7,40.9,20.2,40.4,19.6,40.4z"/>
	<path d="M21.8,45.2c-0.6,0-1,0.4-1,1c0,0.3,0.1,0.6,0.3,0.7c0.2,0.2,0.5,0.4,0.8,0.4c0.6,0,1-0.4,1-1
		C22.9,45.7,22.4,45.2,21.8,45.2z"/>
	<path d="M23.9,48.7c-0.6,0-1,0.4-1,1c0,0.3,0.1,0.6,0.3,0.7c0.2,0.2,0.5,0.4,0.8,0.4c0.6,0,1-0.4,1-1C25,49.2,24.5,48.7,23.9,48.7z
		"/>
	<path d="M26.5,51.3c-0.6,0-1,0.4-1,1c0,0.3,0.1,0.6,0.3,0.7c0.2,0.2,0.5,0.4,0.8,0.4c0.6,0,1-0.4,1-1
		C27.6,51.8,27.1,51.3,26.5,51.3z"/>
	<path d="M28.9,54.1c-0.6,0-1,0.4-1,1c0,0.3,0.1,0.6,0.3,0.7c0.2,0.2,0.5,0.4,0.8,0.4c0.6,0,1-0.4,1-1C30,54.6,29.5,54.1,28.9,54.1z
		"/>
	<path d="M29.4,48c-0.6,0-1,0.4-1,1c0,0.3,0.1,0.6,0.3,0.7c0.2,0.2,0.5,0.4,0.8,0.4c0.6,0,1-0.4,1-1C30.5,48.6,30,48,29.4,48z"/>
	<path d="M29,45.8c0.6,0,1-0.4,1-1c0-0.6-0.5-1.1-1.1-1.1c-0.6,0-1,0.4-1,1c0,0.3,0.1,0.6,0.3,0.7C28.3,45.6,28.6,45.8,29,45.8z"/>
	<path d="M31.7,40.8c0,0.3,0.1,0.6,0.3,0.7c0.2,0.2,0.5,0.4,0.8,0.4c0.6,0,1-0.4,1-1c0-0.6-0.5-1.1-1.1-1.1
		C32.2,39.8,31.7,40.2,31.7,40.8z"/>
	<path d="M38,41.9c0.6,0,1-0.4,1-1c0-0.6-0.5-1.1-1.1-1.1c-0.6,0-1,0.4-1,1c0,0.3,0.1,0.6,0.3,0.7C37.4,41.8,37.7,41.9,38,41.9z"/>
	<path d="M43.1,41.9c0.6,0,1-0.4,1-1c0-0.6-0.5-1.1-1.1-1.1c-0.6,0-1,0.4-1,1c0,0.3,0.1,0.6,0.3,0.7C42.5,41.8,42.8,41.9,43.1,41.9z
		"/>
	<path d="M46.9,43.7c-0.6,0-1,0.4-1,1c0,0.3,0.1,0.6,0.3,0.7c0.2,0.2,0.5,0.4,0.8,0.4c0.6,0,1-0.4,1-1C48,44.2,47.5,43.7,46.9,43.7z
		"/>
	<path d="M46.9,49.5c0.6,0,1-0.4,1-1c0-0.6-0.5-1.1-1.1-1.1c-0.6,0-1,0.4-1,1c0,0.3,0.1,0.6,0.3,0.7C46.3,49.4,46.6,49.5,46.9,49.5z
		"/>
	<path d="M46.9,51.4c-0.6,0-1,0.4-1,1c0,0.3,0.1,0.6,0.3,0.7c0.2,0.2,0.5,0.4,0.8,0.4c0.6,0,1-0.4,1-1C48,51.9,47.5,51.4,46.9,51.4z
		"/>
	<path d="M50.7,47.5c-0.6,0-1,0.4-1,1c0,0.3,0.1,0.6,0.3,0.7c0.2,0.2,0.5,0.4,0.8,0.4c0.6,0,1-0.4,1-1C51.8,48,51.3,47.5,50.7,47.5z
		"/>
	<path d="M43.3,55c0,0.3,0.1,0.6,0.3,0.7c0.2,0.2,0.5,0.4,0.8,0.4c0.6,0,1-0.4,1-1c0-0.6-0.5-1.1-1.1-1.1C43.8,54,43.3,54.4,43.3,55
		z"/>
	<path d="M40.6,55.4c-0.6,0-1,0.4-1,1c0,0.3,0.1,0.6,0.3,0.7c0.2,0.2,0.5,0.4,0.8,0.4c0.6,0,1-0.4,1-1
		C41.7,55.9,41.2,55.4,40.6,55.4z"/>
	<path d="M33.4,56.9c0-0.6-0.5-1.1-1.1-1.1c-0.6,0-1,0.4-1,1c0,0.3,0.1,0.6,0.3,0.7c0.2,0.2,0.5,0.4,0.8,0.4
		C32.9,57.9,33.4,57.4,33.4,56.9z"/>
	<path d="M36.5,56.8c-0.6,0-1,0.4-1,1c0,0.3,0.1,0.6,0.3,0.7c0.2,0.2,0.5,0.4,0.8,0.4c0.6,0,1-0.4,1-1
		C37.6,57.3,37.1,56.8,36.5,56.8z"/>
	<path d="M32.7,51.4c-0.6,0-1,0.4-1,1c0,0.3,0.1,0.6,0.3,0.7c0.2,0.2,0.5,0.4,0.8,0.4c0.6,0,1-0.4,1-1
		C33.8,51.9,33.3,51.4,32.7,51.4z"/>
	<path d="M36.6,54.5c0.6,0,1-0.4,1-1c0-0.6-0.5-1.1-1.1-1.1c-0.6,0-1,0.4-1,1c0,0.3,0.1,0.6,0.3,0.7C36,54.3,36.2,54.5,36.6,54.5z"
		/>
	<path d="M40.6,53.5c0.6,0,1-0.4,1-1c0-0.6-0.5-1.1-1.1-1.1c-0.6,0-1,0.4-1,1c0,0.3,0.1,0.6,0.3,0.7C40,53.4,40.2,53.5,40.6,53.5z"
		/>
	<path d="M44.1,50c0-0.6-0.5-1.1-1.1-1.1c-0.6,0-1,0.4-1,1c0,0.3,0.1,0.6,0.3,0.7c0.2,0.2,0.5,0.4,0.8,0.4
		C43.7,51,44.1,50.5,44.1,50z"/>
	<path d="M51.8,44.6c0,0.3,0.1,0.6,0.3,0.7c0.2,0.2,0.5,0.4,0.8,0.4c0.6,0,1-0.4,1-1c0-0.6-0.5-1.1-1.1-1.1
		C52.2,43.6,51.8,44,51.8,44.6z"/>
	<path d="M27.2,23.7c0.5-0.6,1.3-0.9,2.2-0.9c0.9,0,1.8,0.4,2.2,0.9c0.2,0.3,0.5,0.4,0.8,0.4c0.2,0,0.4-0.1,0.6-0.2
		c0.4-0.3,0.5-1,0.2-1.4c-0.8-1.1-2.3-1.7-3.8-1.7c-1.6,0-3,0.6-3.8,1.7c-0.3,0.4-0.3,1.1,0.2,1.4C26.2,24.2,26.8,24.2,27.2,23.7z"
		/>
	<path d="M46.5,23.7c0.5-0.6,1.3-0.9,2.2-0.9c0.9,0,1.8,0.4,2.2,0.9c0.2,0.3,0.5,0.4,0.8,0.4c0.2,0,0.4-0.1,0.6-0.2
		c0.4-0.3,0.5-1,0.2-1.4c-0.8-1.1-2.3-1.7-3.8-1.7c-1.6,0-3,0.6-3.8,1.7c-0.3,0.4-0.3,1.1,0.2,1.4C45.5,24.2,46.2,24.2,46.5,23.7z"
		/>
</g>
</svg>
