<?xml version="1.0" encoding="utf-8"?>
<!-- Generator: Adobe Illustrator 23.0.1, SVG Export Plug-In . SVG Version: 6.00 Build 0)  -->
<svg version="1.1" id="Layer_1" xmlns="http://www.w3.org/2000/svg" xmlns:xlink="http://www.w3.org/1999/xlink" x="0px" y="0px"
	 viewBox="0 0 40 58" enable-background="new 0 0 40 58" xml:space="preserve">
<g>
	<path d="M39,14H24V1c0-0.6-0.4-1-1-1h-6c-0.6,0-1,0.4-1,1v13H1c-0.6,0-1,0.4-1,1s0.4,1,1,1h3l0.5,9.5L4.6,27L6,57c0,0.5,0.5,1,1,1
		h26c0.5,0,1-0.4,1-1l1.4-30l0.1-1.5L36,16h3c0.6,0,1-0.4,1-1S39.6,14,39,14z M18,2h4v12h-4V2z M18,16h4v4h-4V16z M18,22h4v4h-4V22z
		 M18,28h4v4h-4V28z M6.2,20L6,16h10v4H6.2z M6.4,24l-0.1-2H16v4H6.5L6.4,24z M20,56c-1.1,0-2-0.9-2-2s0.9-2,2-2c1.1,0,2,0.9,2,2
		S21.1,56,20,56z M20,50c-1.1,0-2-0.9-2-2s0.9-2,2-2c1.1,0,2,0.9,2,2S21.1,50,20,50z M20,44c-1.1,0-2-0.9-2-2s0.9-2,2-2
		c1.1,0,2,0.9,2,2S21.1,44,20,44z M32,56h-8.6c0.3-0.5,0.5-1,0.5-1.6c1.9,1.1,4.3,0.5,5.5-1.4c1-1.7,0.7-3.8-0.8-5.1
		c1.7-1.4,1.9-3.9,0.4-5.6c-1.3-1.5-3.4-1.8-5.1-0.8c-0.2-2.2-2.2-3.8-4.4-3.6c-1.9,0.2-3.4,1.7-3.6,3.6c-1.9-1.1-4.3-0.5-5.5,1.3
		c-1,1.7-0.7,3.8,0.8,5.1c-1.7,1.4-1.9,3.9-0.4,5.6c1.3,1.5,3.4,1.8,5.1,0.8c0.1,0.6,0.2,1.1,0.5,1.6H8L6.6,28H16v5c0,0.6,0.4,1,1,1
		h6c0.6,0,1-0.4,1-1v-5h9.4L32,56z M26,49c1.1,0,2,0.9,2,2s-0.9,2-2,2s-2-0.9-2-2S24.9,49,26,49z M24,45c0-1.1,0.9-2,2-2s2,0.9,2,2
		s-0.9,2-2,2S24,46.1,24,45z M14,47c-1.1,0-2-0.9-2-2s0.9-2,2-2s2,0.9,2,2S15.1,47,14,47z M16,51c0,1.1-0.9,2-2,2s-2-0.9-2-2
		s0.9-2,2-2S16,49.9,16,51z M33.6,24l-0.1,2H24v-4h9.7L33.6,24z M33.8,20H24v-4h10L33.8,20z"/>
	<path d="M12.8,38l-0.2,0.1l0.9,1.8l0.2-0.1c1.4-0.7,2.3-2.2,2.3-3.8h-2C14,36.8,13.5,37.6,12.8,38z"/>
	<path d="M26.3,39.8l0.2,0.1l0.9-1.8L27.2,38c-0.8-0.4-1.2-1.2-1.2-2h-2C24,37.6,24.9,39.1,26.3,39.8z"/>
</g>
</svg>
