<?xml version="1.0" encoding="utf-8"?>
<!-- Generator: Adobe Illustrator 23.0.1, SVG Export Plug-In . SVG Version: 6.00 Build 0)  -->
<svg version="1.1" id="Layer_1" xmlns="http://www.w3.org/2000/svg" xmlns:xlink="http://www.w3.org/1999/xlink" x="0px" y="0px"
	 viewBox="0 0 47.3 44" enable-background="new 0 0 47.3 44" xml:space="preserve">
<path d="M7,40.5c4,2.3,9.5,3.5,15.9,3.5h1.4c6.4,0,11.9-1.2,15.9-3.5c4.3-2.4,7-7.3,7-12.4c0-4.8-2.5-9.9-6.8-13.9
	c0,0-4.4-3.8-6-6.8c-0.5-1-0.7-2-0.9-2.9c-0.4-1.7-0.8-3.9-3.9-4.3C29.3,0,29,0,28.7,0c-3.3,0-4,3-4.3,4.5c-0.1,0.4-0.1,0.7-0.2,1
	c-0.1,0.2-0.4,0.3-0.6,0.3c-0.2,0-0.5-0.1-0.6-0.3c-0.1-0.3-0.1-0.7-0.2-1.1C22.7,3,22.4,0,18.7,0c-0.3,0-0.7,0-1.1,0.1
	c-3.2,0.4-3.6,2.6-4,4.3c-0.2,0.9-0.4,1.9-0.9,2.9c-1.6,3-6,6.8-6.1,6.9C2.5,18.2,0,23.4,0,28.1C0,33.2,2.8,38.1,7,40.5z M8.7,16.5
	c0.2-0.2,4.9-4.2,6.7-7.7c0.7-1.4,1-2.7,1.2-3.7c0.3-1.7,0.4-1.8,1.4-2c0.2,0,0.5,0,0.7,0c0.8,0,1,0,1.1,1.7
	c0.1,0.6,0.1,1.2,0.3,1.7c0.5,1.4,1.8,2.4,3.4,2.4c1.6,0,3-0.9,3.4-2.4c0.1-0.4,0.2-0.9,0.3-1.3C27.8,3.3,28,3,28.7,3
	c0.1,0,0.3,0,0.4,0c1,0.1,1.1,0.3,1.4,2c0.2,1,0.5,2.3,1.2,3.7c1.8,3.6,6.5,7.6,6.7,7.7c3.6,3.4,5.8,7.8,5.8,11.7
	c0,4-2.2,7.9-5.5,9.8c-3.5,2-8.6,3.1-14.4,3.1h-1.4c-5.8,0-10.9-1.1-14.4-3.1C5.2,36,3,32.1,3,28.1C3,24.2,5.2,19.8,8.7,16.5z"/>
<path d="M11.6,27.3C11.6,27.3,11.6,27.3,11.6,27.3c0.9,0,1.5-0.7,1.5-1.5c-0.1-3.6,3-6.9,3-7c0.6-0.6,0.5-1.5-0.1-2.1
	c-0.6-0.6-1.6-0.5-2.1,0.1c-0.2,0.2-4,4.2-3.9,9.1C10.1,26.7,10.7,27.3,11.6,27.3z"/>
<path d="M34.2,25.8c0,0.8,0.6,1.5,1.5,1.5c0,0,0,0,0,0c0.8,0,1.5-0.6,1.5-1.5c0.1-4.9-3.7-8.9-3.9-9.1c-0.6-0.6-1.5-0.6-2.1-0.1
	s-0.6,1.5-0.1,2.1C31.2,18.8,34.3,22.2,34.2,25.8z"/>
<path d="M18.6,26.6c0.8,0,1.5-0.7,1.5-1.5c0-2.1,1.3-3.7,1.4-3.8c0.5-0.6,0.5-1.6-0.2-2.1c-0.6-0.5-1.6-0.5-2.1,0.2
	c-0.1,0.1-2.1,2.5-2.1,5.7C17.1,26,17.8,26.6,18.6,26.6z"/>
<path d="M27.1,25.1c0,0.8,0.7,1.5,1.5,1.5s1.5-0.7,1.5-1.5c0-3.2-2-5.6-2.1-5.7c-0.5-0.6-1.5-0.7-2.1-0.2c-0.6,0.5-0.7,1.5-0.2,2.1
	C25.8,21.4,27.1,23,27.1,25.1z"/>
</svg>
