<?xml version="1.0" encoding="utf-8"?>
<!-- Generator: Adobe Illustrator 23.0.1, SVG Export Plug-In . SVG Version: 6.00 Build 0)  -->
<svg version="1.1" id="Layer_1" xmlns="http://www.w3.org/2000/svg" xmlns:xlink="http://www.w3.org/1999/xlink" x="0px" y="0px"
	 viewBox="0 0 42 50" enable-background="new 0 0 42 50" xml:space="preserve">
<title>Hairstyles</title>
<g>
	<path d="M37.2,36c-1.4-0.3-2.8-0.5-4.2-0.6V11c0-0.1-0.1-11-12-11S9,10.9,9,11v24.5c-1.4,0.1-2.8,0.2-4.2,0.6C0.1,37.2,0,47.8,0,49
		c0,0.6,0.4,1,1,1h40c0.6,0,1-0.4,1-1C42,47.8,41.9,37.2,37.2,36z M5.2,38c1.2-0.3,2.5-0.5,3.8-0.5V48H8v-3c0-0.6-0.4-1-1-1
		s-1,0.4-1,1v3H2C2.2,43.8,3.2,38.5,5.2,38z M24.4,26.2L24.4,26.2C24.4,26.2,24.3,26.2,24.4,26.2c-0.6,0.5-1.1,0.9-1.7,1.3
		c-1,0.7-2.4,0.7-3.4,0c-0.6-0.4-1.1-0.8-1.6-1.2c0,0-0.1,0-0.1,0l0,0c0,0-3.6-2.8-3.6-9.2v-2.6c2.3,0.5,4.6,0.7,7,0.6
		c2.4,0.1,4.7-0.2,7-0.6V17C28,23.4,24.5,26.1,24.4,26.2z M18,29c0.1,0,0.1,0.1,0.2,0.1c1.7,1.1,3.9,1.1,5.6,0
		c0.1,0,0.1-0.1,0.2-0.1v19h-6V29z M28,32c-0.6,0-1,0.4-1,1v15h-1V27.5c1.1-1,4-4.3,4-10.5v-4c0-0.3-0.2-0.7-0.5-0.8
		c-0.3-0.2-0.7-0.2-1-0.1c0,0-2,0.9-7.6,0.9s-7.5-0.9-7.6-0.9c-0.5-0.2-1.1,0-1.3,0.4C12,12.7,12,12.8,12,13v4c0,6.2,2.9,9.4,4,10.5
		V48h-1V38c0-0.6-0.4-1-1-1s-1,0.4-1,1v10h-2V11c0-0.3,0.1-6.5,6-8.4c-2,1.7-4,4-4,6.4c0,0.6,0.4,1,1,1s1-0.4,1-1
		c0-2.2,2.9-4.7,5-6.2V10c0,0.6,0.4,1,1,1s1-0.4,1-1V2.8c2.1,1.5,5,4,5,6.2c0,0.6,0.4,1,1,1s1-0.4,1-1c0-2.4-2-4.7-4-6.4
		c5.8,2,6,8.1,6,8.4v37h-2V33C29,32.4,28.6,32,28,32z M36,48v-3c0-0.6-0.4-1-1-1s-1,0.4-1,1v3h-1V37.5c1.3,0,2.5,0.2,3.8,0.5
		c2.1,0.5,3.1,5.9,3.2,10H36z"/>
</g>
</svg>
