<?xml version="1.0" encoding="utf-8"?>
<!-- Generator: Adobe Illustrator 23.0.1, SVG Export Plug-In . SVG Version: 6.00 Build 0)  -->
<svg version="1.1" id="Layer_1" xmlns="http://www.w3.org/2000/svg" xmlns:xlink="http://www.w3.org/1999/xlink" x="0px" y="0px"
	 viewBox="0 0 80 80" enable-background="new 0 0 80 80" xml:space="preserve">
<path d="M41,7.2V1c0-0.6-0.4-1-1-1s-1,0.4-1,1v6.2c0,0.6,0.4,1,1,1S41,7.7,41,7.2z"/>
<path d="M23.6,12.6c0.2,0,0.3,0,0.5-0.1c0.5-0.3,0.6-0.9,0.4-1.4l-3.1-5.3c-0.3-0.5-0.9-0.6-1.4-0.4c-0.5,0.3-0.6,0.9-0.4,1.4
	l3.1,5.3C22.9,12.4,23.2,12.6,23.6,12.6z"/>
<path d="M12.1,22.7l-5.3-3.1c-0.5-0.3-1.1-0.1-1.4,0.4c-0.3,0.5-0.1,1.1,0.4,1.4l5.3,3.1c0.2,0.1,0.3,0.1,0.5,0.1
	c0.3,0,0.7-0.2,0.9-0.5C12.7,23.6,12.5,23,12.1,22.7z"/>
<path d="M0,40c0,0.6,0.4,1,1,1h6.2c0.6,0,1-0.4,1-1s-0.4-1-1-1H1C0.4,39,0,39.4,0,40z"/>
<path d="M6.2,60.5c0.2,0,0.3,0,0.5-0.1l5.3-3.1c0.5-0.3,0.6-0.9,0.4-1.4c-0.3-0.5-0.9-0.6-1.4-0.4l-5.3,3.1
	c-0.5,0.3-0.6,0.9-0.4,1.4C5.5,60.3,5.9,60.5,6.2,60.5z"/>
<path d="M22.7,67.9l-3.1,5.3c-0.3,0.5-0.1,1.1,0.4,1.4c0.2,0.1,0.3,0.1,0.5,0.1c0.3,0,0.7-0.2,0.9-0.5l3.1-5.3
	c0.3-0.5,0.1-1.1-0.4-1.4C23.6,67.3,23,67.5,22.7,67.9z"/>
<path d="M39,72.8V79c0,0.6,0.4,1,1,1s1-0.4,1-1v-6.2c0-0.6-0.4-1-1-1S39,72.3,39,72.8z"/>
<path d="M59.5,74.8c0.2,0,0.3,0,0.5-0.1c0.5-0.3,0.6-0.9,0.4-1.4l-3.1-5.3c-0.3-0.5-0.9-0.6-1.4-0.4c-0.5,0.3-0.6,0.9-0.4,1.4
	l3.1,5.3C58.8,74.6,59.2,74.8,59.5,74.8z"/>
<path d="M67.9,57.3l5.3,3.1c0.2,0.1,0.3,0.1,0.5,0.1c0.3,0,0.7-0.2,0.9-0.5c0.3-0.5,0.1-1.1-0.4-1.4l-5.3-3.1
	c-0.5-0.3-1.1-0.1-1.4,0.4S67.5,57,67.9,57.3z"/>
<path d="M79,39h-6.2c-0.6,0-1,0.4-1,1s0.4,1,1,1H79c0.6,0,1-0.4,1-1S79.6,39,79,39z"/>
<path d="M68.4,24.6c0.2,0,0.3,0,0.5-0.1l5.3-3.1c0.5-0.3,0.6-0.9,0.4-1.4c-0.3-0.5-0.9-0.6-1.4-0.4l-5.3,3.1
	c-0.5,0.3-0.6,0.9-0.4,1.4C67.8,24.4,68.1,24.6,68.4,24.6z"/>
<path d="M56.4,12.6c0.3,0,0.7-0.2,0.9-0.5l3.1-5.3c0.3-0.5,0.1-1.1-0.4-1.4c-0.5-0.3-1.1-0.1-1.4,0.4l-3.1,5.3
	c-0.3,0.5-0.1,1.1,0.4,1.4C56.1,12.5,56.2,12.6,56.4,12.6z"/>
<path id="_x3C_Fill_x3E_" d="M19.8,39.5c3,13.3,19.2,20.2,19.9,20.5c0.1,0.1,0.3,0.1,0.4,0.1s0.3,0,0.4-0.1
	c0.7-0.3,16.9-7.2,19.9-20.5c1.8-8-2.6-13.6-7.3-15.5c-4.7-1.9-9.7-0.3-12.9,4.1c-3.2-4.4-8.2-6-12.9-4.1
	C22.3,25.9,18,31.5,19.8,39.5z M27.8,25.8c1-0.4,2.1-0.6,3.2-0.6c2.8,0,5.8,1.4,8.1,5.2c0.2,0.3,0.5,0.5,0.9,0.5s0.7-0.2,0.9-0.5
	c3.2-5.4,8-5.9,11.3-4.6c4,1.6,7.6,6.4,6.1,13.2C55.8,50.3,42.5,56.9,40,58c-2.5-1.1-15.8-7.7-18.3-18.9
	C20.2,32.2,23.8,27.4,27.8,25.8z"/>
<path d="M35.1,48.5c0.2,0.1,0.4,0.2,0.5,0.2c0.3,0,0.7-0.2,0.8-0.5c0.3-0.5,0.2-1.1-0.3-1.4c-2.8-1.8-6.3-4.8-7.2-8.9
	c-0.5-2.3,0-4.4,1.4-5.8c0.4-0.4,0.4-1,0-1.4c-0.4-0.4-1-0.4-1.4,0c-1.9,1.9-2.6,4.7-2,7.7C28,43.1,32,46.5,35.1,48.5z"/>
</svg>
