<?xml version="1.0" encoding="utf-8"?>
<!-- Generator: Adobe Illustrator 23.0.1, SVG Export Plug-In . SVG Version: 6.00 Build 0)  -->
<svg version="1.1" id="Layer_1" xmlns="http://www.w3.org/2000/svg" xmlns:xlink="http://www.w3.org/1999/xlink" x="0px" y="0px"
	 viewBox="0 0 48.8 53" enable-background="new 0 0 48.8 53" xml:space="preserve">
<g>
	<path d="M15.4,0.2C14.9-0.1,14.3,0,14,0.4c0,0,0,0,0,0c-0.7,0.9-1,2-1,3.1c0,1.2,0.4,2.4,1.2,3.3C14.7,7.4,15,8.2,15,9
		c0,0.6,0.4,1,1,1s1-0.4,1-1c0-1.2-0.4-2.4-1.2-3.3C15.3,5.1,15,4.3,15,3.5c0-0.7,0.2-1.4,0.6-1.9C16,1.1,15.8,0.5,15.4,0.2z"/>
	<path d="M22.4,0.2C21.9-0.1,21.3,0,21,0.4c0,0,0,0,0,0c-0.7,0.9-1,2-1,3.1c0,1.2,0.4,2.4,1.2,3.3C21.7,7.4,22,8.2,22,9
		c0,0.6,0.4,1,1,1s1-0.4,1-1c0-1.2-0.4-2.4-1.2-3.3C22.3,5.1,22,4.3,22,3.5c0-0.7,0.2-1.4,0.6-1.9C23,1.1,22.8,0.5,22.4,0.2z"/>
	<path d="M29.4,0.2C28.9-0.1,28.3,0,28,0.4c0,0,0,0,0,0c-0.7,0.9-1,2-1,3.1c0,1.2,0.4,2.4,1.2,3.3C28.7,7.4,29,8.2,29,9
		c0,0.6,0.4,1,1,1s1-0.4,1-1c0-1.2-0.4-2.4-1.2-3.3C29.3,5.1,29,4.3,29,3.5c0-0.7,0.2-1.4,0.6-1.9C30,1.1,29.8,0.5,29.4,0.2z"/>
	<rect x="26" y="15" width="2" height="2"/>
	<rect x="18" y="15" width="2" height="2"/>
	<path d="M43.8,18h-4.9c-0.5-3.4-3.4-6-6.9-6H14c-3.5,0-6.4,2.6-6.9,6H7c-0.6,0-1,0.4-1,1c0,6.7,1.7,13.3,5,19.2l3.3,5.8H3
		c-1.7,0-3,1.3-3,3s1.3,3,3,3h10.3l0.8,2.3c0.1,0.4,0.5,0.7,0.9,0.7h16c0.4,0,0.8-0.3,0.9-0.7l0.8-2.3H43c1.7,0,3-1.3,3-3
		s-1.3-3-3-3H31.7l2.8-5H35c2.8,0,5.5-0.8,7.8-2.3c3.2-2.2,5.2-5.7,5.6-9.5l0.4-3.7c0.3-2.7-1.7-5.2-4.5-5.5C44.1,18,44,18,43.8,18z
		 M39.7,24h3l-0.3,2.6c-0.2,2.2-1.4,4.1-3.2,5.3c-0.5,0.3-1.1,0.6-1.7,0.8C38.6,29.8,39.3,26.9,39.7,24z M14,14v1h2v-1h6v2h2v-2h6v1
		h2v-1c2.4,0,4.4,1.7,4.9,4H9.1C9.6,15.7,11.6,14,14,14z M43,46c0.6,0,1,0.4,1,1s-0.4,1-1,1H32c-0.4,0-0.8,0.3-0.9,0.7L30.3,51H15.7
		l-0.8-2.3C14.8,48.3,14.4,48,14,48H3c-0.6,0-1-0.4-1-1s0.4-1,1-1H43z M33.2,37.2L29.4,44H16.6l-3.8-6.8C9.8,32,8.2,26,8,20h30
		C37.8,26,36.2,32,33.2,37.2z M46.4,27c-0.3,3.2-2.1,6.2-4.7,8c-1.8,1.2-3.9,1.9-6,2c0.4-0.7,0.7-1.4,1-2.1c4.2-0.5,7.4-3.9,7.8-8.1
		l0.4-3.7c0.1-0.5-0.3-1-0.9-1.1c0,0-0.1,0-0.1,0h-3.9c0.1-0.7,0.1-1.3,0.1-2h3.8c1.7,0,3,1.3,3,3c0,0.1,0,0.2,0,0.3L46.4,27z"/>
</g>
</svg>
