<?xml version="1.0" encoding="utf-8"?>
<!-- Generator: Adobe Illustrator 23.0.1, SVG Export Plug-In . SVG Version: 6.00 Build 0)  -->
<svg version="1.1" id="Layer_1" xmlns="http://www.w3.org/2000/svg" xmlns:xlink="http://www.w3.org/1999/xlink" x="0px" y="0px"
	 viewBox="0 0 29.9 70.3" enable-background="new 0 0 29.9 70.3" xml:space="preserve">
<path d="M29.9,22.6C29.9,5.9,21.9,0,15,0S0,5.9,0,22.6c0,14.1,4.2,29.3,13.5,30.7v15.5c0,0.8,0.7,1.5,1.5,1.5s1.5-0.7,1.5-1.5V53.3
	C25.7,51.8,29.9,36.7,29.9,22.6z M3,22.6C3,10.7,7.7,3,15,3s12,7.7,12,19.6c0,13.5-4.2,27.9-12,27.9C7.2,50.4,3,36.1,3,22.6z"/>
<path d="M16.5,44.6c0.3-0.8-0.1-1.6-0.8-1.9l-0.1-0.1c-1.2-0.5-3.3-1.3-3.3-1.9s2-1.4,3.3-1.9c2.3-0.9,5.2-2,5.2-4.7
	s-2.9-3.8-5.2-4.7c-1.2-0.5-3.3-1.3-3.3-1.9s2-1.4,3.3-1.9c2.3-0.9,5.2-2,5.2-4.7c0-2.7-2.9-3.8-5.2-4.7c-1.2-0.5-3.3-1.3-3.3-1.9
	c0-0.6,2-1.4,3.3-1.9l0.2-0.1c0.8-0.3,1.2-1.2,0.8-1.9c-0.3-0.8-1.2-1.1-1.9-0.8l-0.2,0.1c-2.3,0.9-5.2,2-5.2,4.7
	c0,2.7,2.9,3.8,5.2,4.7c1.2,0.5,3.3,1.3,3.3,1.9s-2,1.4-3.3,1.9c-2.3,0.9-5.2,2-5.2,4.7s2.9,3.8,5.2,4.7c1.2,0.5,3.3,1.3,3.3,1.9
	c0,0.6-2,1.4-3.3,1.9c-2.3,0.9-5.2,2-5.2,4.7s2.9,3.8,5.2,4.7l0.1,0.1c0.2,0.1,0.4,0.1,0.5,0.1C15.7,45.5,16.3,45.2,16.5,44.6z"/>
</svg>
