<?xml version="1.0" encoding="utf-8"?>
<!-- Generator: Adobe Illustrator 23.0.1, SVG Export Plug-In . SVG Version: 6.00 Build 0)  -->
<svg version="1.1" id="Layer_1" xmlns="http://www.w3.org/2000/svg" xmlns:xlink="http://www.w3.org/1999/xlink" x="0px" y="0px"
	 viewBox="0 0 65.3 70.6" enable-background="new 0 0 65.3 70.6" xml:space="preserve">
<path d="M59.7,36.8v-1.7h2c0.6,0,1-0.4,1-1s-0.4-1-1-1h-2v-1.7c0-0.6-0.4-1-1-1s-1,0.4-1,1v1.7h-2c-0.6,0-1,0.4-1,1s0.4,1,1,1h2v1.7
	c0,0.6,0.4,1,1,1S59.7,37.3,59.7,36.8z"/>
<path d="M8.7,4.7h2v1.7c0,0.6,0.4,1,1,1c0.6,0,1-0.4,1-1V4.7h2c0.6,0,1-0.4,1-1s-0.4-1-1-1h-2V1c0-0.6-0.4-1-1-1s-1,0.4-1,1v1.7h-2
	c-0.6,0-1,0.4-1,1S8.2,4.7,8.7,4.7z"/>
<path d="M2.2,11.1c0,0.6,0.4,1,1,1s1-0.4,1-1v-1h1.2c0.6,0,1-0.4,1-1s-0.4-1-1-1H4.2v-1c0-0.6-0.4-1-1-1s-1,0.4-1,1v1H1
	c-0.6,0-1,0.4-1,1s0.4,1,1,1h1.2V11.1z"/>
<path d="M64.3,42.8h-1.2v-1c0-0.6-0.4-1-1-1s-1,0.4-1,1v1h-1.2c-0.6,0-1,0.4-1,1s0.4,1,1,1h1.2v1c0,0.6,0.4,1,1,1s1-0.4,1-1v-1h1.2
	c0.6,0,1-0.4,1-1S64.9,42.8,64.3,42.8z"/>
<path d="M28.4,1.5L28.4,1.5c-0.1,0.1-0.2,0.1-0.2,0.1L6.1,15.3l0,0l0,0c-0.1,0.1-0.2,0.1-0.2,0.2l0,0l0,0c-0.1,0.1-0.1,0.2-0.1,0.3
	v0.1V16v39.9V56v0.1c0,0.1,0.1,0.2,0.1,0.3l0,0c0,0,0,0,0.1,0.1l0.1,0.1l0.1,0.1c0,0,0,0,0.1,0.1l22.1,13.7h0.1h0.1
	c0.1,0,0.2,0.1,0.3,0.1s0.2,0,0.3-0.1h0.1h0.1l22.1-13.7c0,0,0,0,0.1-0.1l0.1-0.1l0.1-0.1c0,0,0,0,0.1-0.1l0,0
	c0.1-0.1,0.1-0.2,0.1-0.3V56v-0.1V16.1V16v-0.1c0-0.1-0.1-0.2-0.1-0.3l0,0l0,0c-0.1-0.1-0.1-0.2-0.2-0.2l0,0l0,0L29.3,1.6h-0.1h-0.1
	C28.9,1.4,28.7,1.4,28.4,1.5z M49.9,54.2L41.8,49V23.2l8.1-5.2V54.2z M7.6,18l8.1,5.2v25.7l-8.1,5.2V18z M28.8,55.3l-11-6.4V23.2
	l11-6.4l11,6.4v25.7L28.8,55.3z M27.8,15.2l-11,6.3l-8.3-5.3L27.8,4.3V15.2z M16.8,50.7l11,6.3v10.9L8.5,56L16.8,50.7z M29.8,57
	l11-6.3l8.3,5.3L29.8,68V57z M40.8,21.5l-11-6.3v-11L49,16.1L40.8,21.5z"/>
<path d="M28.3,20.2l-7.5,4.3c-0.3,0.2-0.5,0.5-0.5,0.9v18.5c0,0.6,0.4,1,1,1s1-0.4,1-1v-18l7-4c0.5-0.3,0.6-0.9,0.4-1.4
	S28.8,19.9,28.3,20.2z"/>
</svg>
