<?xml version="1.0" encoding="utf-8"?>
<!-- Generator: Adobe Illustrator 23.0.1, SVG Export Plug-In . SVG Version: 6.00 Build 0)  -->
<svg version="1.1" id="Layer_1" xmlns="http://www.w3.org/2000/svg" xmlns:xlink="http://www.w3.org/1999/xlink" x="0px" y="0px"
	 viewBox="0 0 68 64" enable-background="new 0 0 68 64" xml:space="preserve">
<path d="M60.3,0c-0.6,0-1,0.4-1,1v1.7h-2c-0.6,0-1,0.4-1,1s0.4,1,1,1h2v1.7c0,0.6,0.4,1,1,1s1-0.4,1-1V4.7h2c0.6,0,1-0.4,1-1
	s-0.4-1-1-1h-2V1C61.3,0.4,60.8,0,60.3,0z"/>
<path d="M4,5.4c-0.6,0-1,0.4-1,1v1.7H1c-0.6,0-1,0.4-1,1s0.4,1,1,1h2v1.7c0,0.6,0.4,1,1,1s1-0.4,1-1v-1.7h2c0.6,0,1-0.4,1-1
	s-0.4-1-1-1H5V6.4C5,5.9,4.5,5.4,4,5.4z"/>
<path d="M64.8,8.1c-0.6,0-1,0.4-1,1v1h-1.2c-0.6,0-1,0.4-1,1s0.4,1,1,1h1.2v1c0,0.6,0.4,1,1,1s1-0.4,1-1v-1H67c0.6,0,1-0.4,1-1
	s-0.4-1-1-1h-1.2v-1C65.8,8.6,65.3,8.1,64.8,8.1z"/>
<path d="M46.6,3L46.6,3c-0.1-0.1-0.2-0.2-0.3-0.2c0,0,0,0,0,0c0,0-0.1,0-0.1,0c-0.1,0-0.2,0-0.2,0h0c0,0,0,0,0,0H21.3c0,0,0,0,0,0
	c-0.1,0-0.1,0-0.2,0c-0.1,0-0.1,0-0.2,0c0,0,0,0,0,0c-0.1,0-0.1,0.1-0.1,0.1c0,0-0.1,0.1-0.2,0.1L3.3,20.4c0,0,0,0,0,0
	c0,0-0.1,0.1-0.1,0.2c0,0.1-0.1,0.1-0.1,0.2c0,0,0,0,0,0c0,0.1,0,0.1,0,0.2c0,0.1,0,0.1,0,0.2v24.6c0,0,0,0,0,0c0,0.1,0,0.1,0,0.2
	c0,0.1,0,0.1,0,0.2c0,0,0,0,0,0c0,0.1,0.1,0.2,0.2,0.3c0,0,0,0,0,0l17.4,17.4c0,0,0,0,0,0l0,0c0.1,0.1,0.1,0.1,0.2,0.1
	c0,0,0.1,0.1,0.1,0.1c0,0,0,0,0,0c0.1,0.1,0.3,0.1,0.4,0.1h24.6c0.1,0,0.2,0,0.3-0.1c0,0,0,0,0,0c0.1,0,0.1-0.1,0.2-0.1
	c0,0,0.1-0.1,0.1-0.1c0,0,0,0,0,0L64,46.3c0,0,0,0,0,0c0.1-0.1,0.1-0.2,0.2-0.3c0,0,0,0,0,0c0-0.1,0-0.1,0.1-0.2c0-0.1,0-0.1,0-0.2
	c0,0,0,0,0,0V21.1c0-0.1,0-0.1,0-0.2c0-0.1,0-0.1,0-0.2c0,0,0,0,0,0c0-0.1-0.1-0.1-0.1-0.2c0,0-0.1-0.1-0.1-0.1c0,0,0,0,0,0L46.6,3
	C46.6,3,46.6,3,46.6,3z M61.5,20.7l-12.7,4.8l-7.5-7.5l5.1-12.5L61.5,20.7z M62.3,44L49.5,38V27.3l12.8-4.8V44z M46.3,61.2
	l-5.1-13.8l7.5-7.5l12.9,6.1L46.3,61.2z M5.7,45.9l13.6-6.1l7.5,7.5L21,61.2L5.7,45.9z M5,22.5l13.6,4.9V38L5,44.1V22.5z M21,5.4
	L26.8,18l-7.5,7.5L5.8,20.7L21,5.4z M39.6,46.1H28.4l-7.9-7.9V27.1l7.9-7.9h11.1l7.9,7.9v11.1L39.6,46.1z M39.3,17.2H28.7L22.9,4.7
	h21.5L39.3,17.2z M28.7,48.1h10.6L44.5,62H22.9L28.7,48.1z"/>
<path d="M38.4,22.1c-0.4-0.4-1-0.4-1.4,0c-0.4,0.4-0.4,1,0,1.4l5.8,5.5v7.1c0,0.6,0.4,1,1,1s1-0.4,1-1v-7.5c0-0.3-0.1-0.5-0.3-0.7
	L38.4,22.1z"/>
</svg>
