<?xml version="1.0" encoding="utf-8"?>
<!-- Generator: Adobe Illustrator 23.0.1, SVG Export Plug-In . SVG Version: 6.00 Build 0)  -->
<svg version="1.1" id="Layer_1" xmlns="http://www.w3.org/2000/svg" xmlns:xlink="http://www.w3.org/1999/xlink" x="0px" y="0px"
	 viewBox="0 0 72.1 74.6" enable-background="new 0 0 72.1 74.6" xml:space="preserve">
<path d="M31.8,41.1L24.6,54c0,0,0,0,0,0.1v0.1c0,0.1,0,0.2,0,0.2s0,0,0,0.1c0,0,0,0,0,0.1s0,0.2,0.1,0.3V55c0,0.1,0.1,0.2,0.2,0.3
	l0,0l0,0l18.8,19c0.2,0.2,0.4,0.3,0.7,0.3s0.5-0.1,0.7-0.3l18.8-19l0,0l0,0c0.1-0.1,0.1-0.2,0.2-0.3v-0.1c0-0.1,0-0.2,0.1-0.3
	c0,0,0,0,0-0.1c0,0,0,0,0-0.1s0-0.2,0-0.2v-0.1c0,0,0,0,0-0.1l-7.4-12.9c-0.2-0.3-0.5-0.5-0.9-0.5H32.7C32.3,40.5,32,40.7,31.8,41.1
	z M36.4,55.4l5.2,13.8L27.9,55.4H36.4z M60.8,55.4L46.4,69.9l5.5-14.5H60.8z M49.7,55.4l-5.6,14.8l-5.6-14.8H49.7z M38.8,53.4
	l5.3-9.7l5.3,9.7H38.8z M61.5,53.4h-9.7l-6-10.9h9.6L61.5,53.4z M42.5,42.5l-6,10.9h-9.3l6.1-10.9H42.5z"/>
<path d="M38,13C38,13.1,38,13.1,38,13c0,0.1,0,0.2,0.1,0.2l8.7,21.3c0,0,0,0.1,0.1,0.1c0,0,0,0,0,0.1c0.1,0.1,0.1,0.2,0.2,0.2l0,0
	c0,0,0,0,0.1,0c0,0.2,0.1,0.2,0.1,0.2h0.1c0,0,0,0,0.1,0l14.8,2.6c0.1,0,0.1,0,0.2,0l0,0c0.1,0,0.3,0,0.4-0.1l0,0l0.1-0.1
	c0.1-0.1,0.2-0.1,0.2-0.2l0,0L72,25.1l0,0V25c0-0.1,0.1-0.1,0.1-0.2l0,0l0,0c0-0.1,0-0.2,0-0.3c0,0,0,0,0-0.1v-0.1L63.4,3
	c0,0,0-0.1-0.1-0.1c0,0,0,0,0-0.1c-0.1-0.1-0.1-0.2-0.2-0.2l0,0l0,0c-0.1-0.1-0.2-0.1-0.3-0.1c0,0,0,0-0.1,0l0,0L47.9,0h-0.1h-0.1
	c-0.2,0-0.5,0.1-0.6,0.3c0,0,0,0-0.1,0.1s0,0-0.1,0.1l-8.8,12.2l0,0c0,0,0,0,0,0.1C38,12.9,38,13,38,13.1l0,0l0,0
	C38,12.8,38,12.9,38,13z M47.6,2.7l2,4.9l-4.2,5.5l-4.7-0.9L47.6,2.7z M69.7,23.2l-4.5-0.9L59.8,9l2.6-3.7L69.7,23.2z M62.7,34.7
	l-2-4.9l4.2-5.4l4.7,0.9L62.7,34.7z M51.1,8.9l6.8,0.9l5.5,13.3l-4.2,5.4l-6.9-0.9l-5.4-13.3L51.1,8.9z M52.1,29.6l6.8,0.9l2,4.9
	l-11.5-2L52.1,29.6z M58.2,7.8l-6.8-0.9l-2-4.9l11.5,2L58.2,7.8z M45.1,15l5.4,13.3l-2.6,3.8l-7.3-17.9L45.1,15z"/>
<path d="M0,33.6L0,33.6v0.2c0,0.1,0.1,0.2,0.1,0.3l0,0c0,0,0,0,0.1,0.1l0.1,0.1l0.1,0.1c0,0,0,0,0.1,0.1l15.8,9.8h0.1h0.1
	c0.1,0,0.2,0.1,0.3,0.1s0.2,0,0.3-0.1h0.1h0.1l15.8-9.8c0,0,0,0,0.1-0.1l0.1-0.1l0.1-0.1c0,0,0,0,0.1-0.1l0,0
	c0.1-0.1,0.1-0.2,0.1-0.3v-0.1v-0.1V14.3v-0.1v-0.1c0-0.1-0.1-0.2-0.1-0.3l0,0l0,0c-0.1-0.1-0.1-0.2-0.2-0.2l0,0l0,0L17.5,3.8h-0.1
	h-0.1c-0.1,0-0.2-0.1-0.3-0.1l0,0l0,0c-0.1,0-0.2,0-0.3,0.1h-0.1h-0.1L0.7,13.6l0,0l0,0c-0.1,0.1-0.2,0.1-0.2,0.2l0,0l0,0
	c-0.1,0.1-0.1,0.2-0.1,0.3v0.1v0.1v19.3H0z M31.7,31.8l-5.2-3.4v-8.8l5.2-3.4V31.8z M8.3,30.1l7.6,4.4v7.2l-13-8L8.3,30.1z
	 M16.8,15.2l7.6,4.4v8.7l-7.6,4.4l-7.6-4.4v-8.7L16.8,15.2z M17.8,34.5l7.6-4.4l5.4,3.5l-13,8V34.5z M25.4,17.8l-7.6-4.4V6.2l13,8
	L25.4,17.8z M15.8,13.5l-7.5,4.3l-5.4-3.5l13-8v7.2H15.8z M7.2,19.6v8.8L2,31.8V16.2L7.2,19.6z"/>
</svg>
