<svg xmlns="http://www.w3.org/2000/svg" xmlns:xlink="http://www.w3.org/1999/xlink" version="1.1" x="0px" y="0px" viewBox="0 0 90 112.5" style="enable-background:new 0 0 90 90;" xml:space="preserve"><g><path d="M50.607,52.425c0.372,0.364,0.948,0.392,1.365,0.081c0.724-0.537,1.559-0.889,2.449-1.03   c0.514-0.082,0.897-0.512,0.897-1.032c0-0.635-0.562-1.144-1.19-1.047c-1.251,0.192-2.425,0.686-3.437,1.446   C50.183,51.224,50.153,51.981,50.607,52.425L50.607,52.425z"/><path d="M43.718,61.473c-0.457-0.441-1.213-0.389-1.58,0.13c-0.731,1.034-1.191,2.221-1.347,3.477   c-0.078,0.63,0.446,1.178,1.081,1.16h0.001c0.52-0.015,0.939-0.41,1.006-0.926c0.116-0.894,0.443-1.739,0.96-2.478   C44.137,62.409,44.093,61.834,43.718,61.473L43.718,61.473z"/><path d="M33.676,63.766c-0.372-0.364-0.948-0.391-1.366-0.08c-0.723,0.538-1.558,0.889-2.449,1.031   c-0.514,0.082-0.897,0.512-0.897,1.032v0c0,0.635,0.562,1.143,1.19,1.047c1.252-0.192,2.426-0.686,3.438-1.446   C34.101,64.968,34.13,64.21,33.676,63.766L33.676,63.766z"/><path d="M39.455,41.448L39.455,41.448c0.559,0.153,1.137-0.176,1.29-0.735l1.202-4.386   c0.153-0.559-0.176-1.137-0.735-1.29h0c-0.559-0.153-1.137,0.176-1.29,0.735l-1.202,4.386   C38.566,40.717,38.895,41.295,39.455,41.448z"/><path d="M47.052,54.107c0.293-0.5,0.124-1.143-0.376-1.436c-0.501-0.293-1.144-0.124-1.437,0.376l-1.961,3.354   c-0.293,0.5-0.124,1.143,0.376,1.436c0.501,0.293,1.144,0.124,1.437-0.376L47.052,54.107z"/><path d="M68.006,68.373h-1.778l-8.966-23.414c1.002-1.294,1.549-2.87,1.549-4.532c0-1.738-1.412-3.152-3.148-3.152   c-0.262,0-0.512,0.041-0.755,0.102l0.293-3.053c0.059-0.607-0.144-1.214-0.554-1.665c-0.41-0.451-0.995-0.709-1.604-0.709H52.28   l-5.618-14.669c-0.267-0.694-0.918-1.143-1.662-1.143h0c-0.744,0-1.396,0.449-1.661,1.144l0,0l-11.611,30.32   c-0.994,0.367-1.908,0.94-2.679,1.711c-1.404,1.404-2.177,3.27-2.176,5.254c0,1.231,0.298,2.415,0.859,3.472l-3.959,10.337h-1.777   c-1.842,0-3.34,1.498-3.34,3.34s1.499,3.341,3.34,3.341h46.01c1.841,0,3.339-1.499,3.339-3.341S69.847,68.373,68.006,68.373z    M53.11,34.123l-0.596,6.203l0.005,0c-0.001,0.034-0.01,0.066-0.01,0.1c0,0.614,0.178,1.201,0.498,1.699   c0.424,0.661,1.422,0.589,1.795-0.102c0.177-0.329,0.165-0.725-0.032-1.042c-0.098-0.158-0.154-0.342-0.158-0.534l0.006-0.065   c0.025-0.558,0.479-1.008,1.044-1.008c0.578,0,1.049,0.472,1.049,1.053c0.001,1.424-0.554,2.762-1.56,3.769   c-1.007,1.007-2.346,1.562-3.77,1.562s-2.762-0.555-3.77-1.562c-1.007-1.007-1.562-2.345-1.561-3.769   c0-0.58,0.471-1.052,1.05-1.052c0.563,0,1.017,0.448,1.043,1.003l0.007,0.068c-0.004,0.193-0.061,0.378-0.159,0.536   c-0.197,0.318-0.209,0.715-0.031,1.044c0.374,0.69,1.371,0.761,1.794,0.1c0.319-0.498,0.497-1.085,0.499-1.699   c0-0.034-0.009-0.066-0.01-0.1l0.005,0l-0.529-6.277h3.322L53.11,34.123z M30.533,50.795c1.007-1.007,2.345-1.561,3.77-1.561   c1.424,0,2.762,0.554,3.768,1.561c0.41,0.41,0.411,1.077,0.002,1.486c-0.398,0.398-1.036,0.402-1.447,0.029l-0.053-0.044   c-0.133-0.14-0.224-0.31-0.267-0.492c-0.085-0.364-0.358-0.653-0.716-0.76c-0.752-0.224-1.507,0.432-1.339,1.198   c0.127,0.578,0.415,1.119,0.849,1.554c0.024,0.024,0.053,0.04,0.078,0.064l-0.003,0.004l4.813,4.064l-2.349,2.349l-0.101-0.004   l-3.965-4.807l-0.004,0.003c-0.023-0.025-0.039-0.054-0.064-0.078c-0.434-0.434-0.975-0.723-1.553-0.85   c-0.767-0.168-1.422,0.589-1.197,1.341c0.107,0.358,0.396,0.629,0.76,0.714c0.181,0.042,0.351,0.133,0.489,0.266l0.042,0.051   c0.377,0.412,0.373,1.051-0.026,1.45c-0.409,0.409-1.076,0.408-1.486-0.003c-1.008-1.006-1.562-2.345-1.562-3.768   C28.972,53.14,29.526,51.802,30.533,50.795z M29.238,59.971c1.237,1.059,3.097,1.017,4.266-0.152   c0.185-0.185,0.333-0.391,0.462-0.606l1.952,2.366c0.388,0.471,0.96,0.757,1.569,0.785c0.609,0.029,1.205-0.202,1.636-0.633   l2.349-2.349c0.431-0.431,0.661-1.026,0.633-1.635c-0.029-0.609-0.315-1.181-0.786-1.57l-2.366-1.951   c0.214-0.129,0.42-0.277,0.605-0.462c1.228-1.228,1.228-3.227-0.001-4.456c-1.402-1.404-3.268-2.177-5.254-2.176   c-0.051,0-0.1,0.006-0.151,0.007L45,18.813l5.03,13.136H49.72c-0.609,0-1.193,0.258-1.604,0.709   c-0.41,0.451-0.612,1.058-0.554,1.666l0.294,3.052c-0.243-0.06-0.493-0.101-0.755-0.101c-1.737,0-3.15,1.414-3.15,3.151   c-0.001,1.984,0.772,3.85,2.176,5.254c1.403,1.404,3.27,2.177,5.254,2.177c1.536,0,2.999-0.467,4.233-1.327l8.365,21.844h-6.536   c0.195-0.123,0.382-0.264,0.552-0.434c1.404-1.402,2.177-3.268,2.176-5.254c0.001-1.985-0.773-3.851-2.176-5.254   c-1.404-1.404-3.27-2.177-5.254-2.176c-1.985-0.001-3.85,0.773-5.253,2.177c-1.229,1.229-1.23,3.227-0.002,4.455   c0.185,0.185,0.391,0.333,0.606,0.462L45.727,64.3c-0.471,0.388-0.757,0.96-0.785,1.569c-0.029,0.609,0.202,1.205,0.633,1.636   l0.868,0.868H26.021L29.238,59.971z M55.094,62.633c-0.578,0.127-1.119,0.415-1.554,0.849c-0.024,0.024-0.04,0.053-0.064,0.078   l-0.004-0.003l-4.065,4.813l-2.349-2.349l0.004-0.101l4.807-3.965l-0.003-0.004c0.025-0.023,0.054-0.039,0.078-0.064   c0.434-0.434,0.723-0.975,0.85-1.553c0.168-0.767-0.589-1.422-1.341-1.197h0c-0.358,0.107-0.629,0.396-0.714,0.76   c-0.042,0.181-0.133,0.351-0.266,0.489l-0.051,0.042c-0.412,0.377-1.051,0.373-1.45-0.026c-0.409-0.409-0.408-1.076,0.003-1.486   c1.006-1.008,2.345-1.562,3.768-1.562c1.424,0,2.763,0.555,3.77,1.561c1.007,1.007,1.561,2.345,1.561,3.77   c0,1.424-0.554,2.762-1.561,3.768c-0.41,0.41-1.077,0.411-1.486,0.002c-0.398-0.398-0.402-1.036-0.029-1.447l0.044-0.053   c0.14-0.133,0.31-0.224,0.492-0.267c0.364-0.086,0.653-0.358,0.76-0.716C56.516,63.221,55.86,62.465,55.094,62.633z M54.091,68.373   h-1.868l0.856-1.038c0.129,0.214,0.277,0.42,0.462,0.605C53.71,68.109,53.896,68.25,54.091,68.373z M68.006,72.954h-46.01   c-0.684,0-1.241-0.557-1.241-1.241c0-0.684,0.557-1.24,1.241-1.24h0.973h26.339c0.084,0.006,0.167,0.019,0.252,0.015   c0.032-0.002,0.063-0.012,0.095-0.015h17.379h0.974c0.684,0,1.239,0.557,1.239,1.24C69.245,72.397,68.689,72.954,68.006,72.954z"/><path d="M43.276,50.589c0,0.58,0.47,1.05,1.05,1.05c0.58,0,1.05-0.47,1.05-1.05c0-0.033-0.016-0.06-0.019-0.092   c-0.05-3.664-3.043-6.632-6.72-6.633v0c0,0-0.001,0-0.001,0c-0.58,0-1.05,0.47-1.05,1.05c0,0.58,0.47,1.05,1.05,1.05   c2.551,0.001,4.626,2.076,4.626,4.625H43.276z"/><path d="M44.789,35.45c0.002,0.002,0.004,0.002,0.006,0.004c0.001,0.001,0.002,0.003,0.004,0.004l0.001-0.001   c0.411,0.401,1.067,0.4,1.474-0.007c0.407-0.407,0.408-1.063,0.007-1.474l0.003-0.003c-2.195-2.194-2.195-5.765,0-7.959   l-0.007-0.007c0.006-0.006,0.015-0.008,0.021-0.014c0.41-0.41,0.41-1.075,0-1.485c-0.41-0.41-1.075-0.41-1.485,0   c-0.006,0.006-0.008,0.015-0.014,0.021c-3.007,3.007-3.012,7.897-0.016,10.911C44.785,35.443,44.786,35.447,44.789,35.45z"/></g><text x="0" y="105" fill="#000000" font-size="5px" font-weight="bold" font-family="'Helvetica Neue', Helvetica, Arial-Unicode, Arial, Sans-serif">Created by Gilda Martini</text><text x="0" y="110" fill="#000000" font-size="5px" font-weight="bold" font-family="'Helvetica Neue', Helvetica, Arial-Unicode, Arial, Sans-serif">from the Noun Project</text></svg>