<?xml version="1.0" encoding="utf-8"?>
<!-- Generator: Adobe Illustrator 23.0.1, SVG Export Plug-In . SVG Version: 6.00 Build 0)  -->
<svg version="1.1" id="Layer_1" xmlns="http://www.w3.org/2000/svg" xmlns:xlink="http://www.w3.org/1999/xlink" x="0px" y="0px"
	 viewBox="0 0 49.3 79.6" enable-background="new 0 0 49.3 79.6" xml:space="preserve">
<path d="M22.4,27.1c-0.3-0.2-0.7-0.5-0.8-0.6c-0.5-0.6-0.9-3.7-0.9-6.7v-6.7c1.3-0.6,2.1-1.9,2.1-3.4c0-1.5-0.9-2.8-2.1-3.4V3.4
	c0-1.9-1.5-3.4-3.4-3.4h-6.2C9.2,0,7.7,1.5,7.7,3.4v2.6C6.2,6.6,5.1,8,5.1,9.7c0,1.7,1.1,3.1,2.7,3.6v6.5c0,3-0.4,6.1-0.9,6.7
	c-0.1,0.1-0.5,0.4-0.8,0.6C4.1,28.4,0,31.2,0,39.2v34.6c0,0,0,0.1,0,0.1c0,0.2,0.7,5.7,9.3,5.7h9.9c8.6,0,9.3-5.4,9.3-5.7
	c0,0,0-0.1,0-0.1V39.2C28.5,31.2,24.4,28.4,22.4,27.1z M8.9,10.5c-0.4,0-0.8-0.4-0.8-0.8s0.4-0.8,0.8-0.8h10.1
	c0.4,0,0.8,0.4,0.8,0.8s-0.4,0.8-0.8,0.8H9.3H8.9z M11.1,3h6.2c0.2,0,0.4,0.2,0.4,0.4v2.4h-7.1V3.4C10.7,3.2,10.9,3,11.1,3z
	 M25.5,61.5H3V42.8h22.5V61.5z M19.2,76.6H9.3c-5.5,0-6.2-2.6-6.3-2.9v-9.2h22.5v9.2C25.4,74.1,24.6,76.6,19.2,76.6z M25.5,39.8H3
	v-0.6c0-6.4,2.9-8.4,4.8-9.7c0.5-0.3,0.9-0.6,1.2-0.9c1.6-1.6,1.7-6.7,1.7-8.8v-6.3h6.9v6.3c0,2.1,0.2,7.3,1.7,8.8
	c0.3,0.3,0.7,0.6,1.2,0.9c1.9,1.3,4.8,3.3,4.8,9.7L25.5,39.8L25.5,39.8z"/>
<path d="M49.3,64C49.3,63.9,49.3,63.9,49.3,64c0-0.1,0-0.1,0-0.2c-0.2-3.3-7.2-3.5-8.6-3.5c-1.4,0-8.4,0.2-8.6,3.5c0,0,0,0.1,0,0.1
	c0,0,0,0,0,0.1c0,0,0,0,0,0.1c0,0,0,0.1,0,0.1l1.2,12.3c0,0.4,0.3,0.8,0.6,1.1c0.3,0.2,2.2,1.5,6.9,1.5s6.5-1.2,6.9-1.5
	c0.3-0.3,0.6-0.6,0.6-1.1l1.2-12.3C49.3,64.1,49.3,64.1,49.3,64C49.3,64,49.3,64,49.3,64z M40.7,63.3c2.3,0,4,0.3,4.9,0.7
	c-0.9,0.3-2.6,0.7-4.9,0.7c-2.3,0-4-0.3-4.9-0.7C36.7,63.6,38.4,63.3,40.7,63.3z M40.7,76c-2.4,0-3.9-0.4-4.5-0.6L35.3,67
	c2.1,0.6,4.6,0.7,5.3,0.7s3.2-0.1,5.3-0.7l-0.8,8.4C44.5,75.6,43.1,76,40.7,76z"/>
</svg>
