<?xml version="1.0" encoding="utf-8"?>
<!-- Generator: Adobe Illustrator 23.0.1, SVG Export Plug-In . SVG Version: 6.00 Build 0)  -->
<svg version="1.1" id="Layer_1" xmlns="http://www.w3.org/2000/svg" xmlns:xlink="http://www.w3.org/1999/xlink" x="0px" y="0px"
	 viewBox="0 0 91.7 91.3" enable-background="new 0 0 91.7 91.3" xml:space="preserve">
<g>
	<path d="M50.9,38.6c-1.1,0-2-0.9-2-2c0-9.6-7.8-17.4-17.4-17.4c-6,0-11.5,3-14.7,8.1c-0.6,0.9-1.8,1.2-2.8,0.6
		c-0.9-0.6-1.2-1.8-0.6-2.8c4-6.2,10.7-9.9,18.1-9.9c11.8,0,21.4,9.6,21.4,21.4C52.9,37.7,52,38.6,50.9,38.6z"/>
	<path d="M50.9,84.2c-0.3,0-0.5,0-0.8-0.2c-0.1,0-0.1,0-0.2-0.1C27.1,73.5,17.3,59.6,13.2,49.8c-0.4-1,0-2.2,1.1-2.6
		c1-0.4,2.2,0,2.6,1.1c3.8,9.1,12.9,21.9,34,31.8c18.6-8.7,27.6-19.7,31.9-27.5c4.1-7.4,4.8-13.3,4.9-14.7c0-0.1,0-0.3,0-0.4v-0.4
		c0-0.1,0-0.3,0-0.4c0-9.6-7.8-17.4-17.4-17.4s-17.4,7.8-17.4,17.4c0,1.1-0.9,2-2,2s-2-0.9-2-2c0-11.8,9.6-21.4,21.4-21.4
		s21.4,9.6,21.4,21.4c0,0.2,0,0.4,0,0.6c0,0.1,0,0.2,0,0.3c0,1.2-0.9,28.6-39.9,46.4c0,0-0.1,0-0.1,0.1c-0.1,0-0.1,0.1-0.2,0.1
		C51.3,84.2,51.1,84.2,50.9,84.2z"/>
</g>
<path d="M84.2,14.5c-0.5,0-1-0.4-1-1c0,0,0-0.6-0.2-1.4c0-0.2,0-0.3,0-0.5c-0.1-0.1-0.2-0.2-0.3-0.4c-0.8-1.9-2.4-2.9-4.6-2.9l0,0
	l0,0c-0.1,0-0.1,0-0.2,0l0,0l0,0c-0.4-0.1-0.8-0.5-0.8-1c0-0.6,0.4-1,1-1c0,0,1.2,0,2.5-0.6c0.5-0.2,1.1,0,1.3,0.5
	C82,6.5,82,6.9,81.8,7.1c1,0.6,1.8,1.4,2.4,2.4c0.6-1,1.4-1.7,2.4-2.3c-2.4-1.5-3.2-4.4-3.2-6.2c0-0.6,0.4-1,1-1l0,0
	c0.5,0,1,0.4,1,1c0.1,5.1,4.5,5.2,5,5.2l0,0l0,0c0.6,0,1,0.4,1,1c0,0.5-0.4,1-1,1l0,0l0,0l0,0l0,0l0,0l0,0l0,0l0,0l0,0l0,0
	c0,0-0.1,0-0.3,0c-0.1,0-0.3,0-0.4,0h-0.1c-0.1,0.1-0.2,0.1-0.4,0.2c-1.8,0.4-4,1.6-4,5C85.2,14.1,84.7,14.5,84.2,14.5L84.2,14.5z"
	/>
<path d="M75.7,84.8c-0.5,0-1-0.4-1-1c0-0.1-0.1-2.7-2.1-3.6c-0.1-0.1-0.2-0.1-0.3-0.2c-0.1,0-0.3,0-0.4,0c-0.3-0.1-0.7-0.1-1.1-0.1
	c-0.6,0-1-0.4-1-1c0-0.6,0.4-1,1-1c0.4,0,4-0.1,4-4c0-0.5,0.4-1,1-1l0,0c0.5,0,1,0.4,1,1c0,0.4,0.2,4,3.8,4c0.6,0,1,0.4,1,1
	c0,0.6-0.4,1-1,1c0,0-0.9,0-1.8,0.4c-0.1,0.1-0.3,0.1-0.4,0.1c-0.1,0.1-0.2,0.2-0.3,0.3c-0.9,0.7-1.4,1.7-1.4,3.1
	C76.7,84.3,76.3,84.8,75.7,84.8L75.7,84.8z M74.3,78.8c0.6,0.4,1.1,0.9,1.4,1.5c0.4-0.6,0.8-1,1.3-1.3c0.1-0.1,0.2-0.1,0.3-0.2
	c-0.6-0.4-1.1-1-1.4-1.5C75.4,78,74.9,78.5,74.3,78.8z"/>
<path d="M19.3,89c-0.5,0-1-0.4-1-1c0-0.2-0.2-5.5-4.9-6.1c-0.1,0-0.2,0-0.3-0.1c-0.2,0-0.4,0-0.6,0l0,0l0,0c-0.6,0-1-0.4-1-1
	c0-0.6,0.4-1,1-1c0.2,0,5.3-0.1,5.9-5c0-0.1,0-0.2,0.1-0.3c0-0.1,0-0.3,0-0.4V74v-0.1c0-0.6,0.4-1,1-1l0,0c0.5,0,1,0.4,1,1
	c0,0.2,0.1,5.3,4.9,6c0.5,0.1,0.9,0.6,0.9,1.1s-0.6,0.9-1.1,0.9c-2.9-0.4-4.6-2.1-5.6-3.9c-0.8,1.4-1.9,2.3-3,2.9
	c1.5,0.9,2.5,2.2,3.1,3.6c0.2,0,0.3,0,0.5,0c0.5,0.2,0.8,0.7,0.6,1.3c-0.2,0.7-0.3,1.4-0.3,2.3C20.3,88.5,19.9,89,19.3,89L19.3,89z"
	/>
<path d="M9.5,46.7C8.7,46.7,8,46,8,45.2c0-0.7-0.3-6.5-6.5-6.5l0,0C0.7,38.7,0,38,0,37.2s0.7-1.5,1.5-1.5l0,0c0.7,0,6.6-0.2,6.6-6.5
	c0-0.8,0.7-1.5,1.5-1.5l0,0c0.8,0,1.5,0.7,1.5,1.5c0,0.7,0.4,6.6,6.3,6.6c0.8,0,1.5,0.7,1.5,1.5s-0.6,1.4-1.5,1.4
	c-0.7,0-6.5,0.2-6.5,6.5C11,46,10.3,46.7,9.5,46.7L9.5,46.7z M6.9,37.2c1.1,0.7,1.9,1.6,2.5,2.6c0.7-1.1,1.7-2,2.7-2.6
	c-1.1-0.7-1.9-1.7-2.5-2.7c-0.3,0.5-0.7,0.9-1.1,1.3C8.1,36.4,7.5,36.8,6.9,37.2z"/>
<path d="M13.9,11.5c-2.1,0-3.7-1.7-3.7-3.7c0-0.7,0.2-1.3,0.5-1.9c0.1-0.2,0.3-0.4,0.5-0.4c0-0.2,0.2-0.4,0.4-0.6
	c0.7-0.5,1.5-0.8,2.3-0.8c2.1,0,3.7,1.7,3.7,3.7S16,11.5,13.9,11.5z M12.6,6.6c0,0.1-0.1,0.2-0.1,0.3c-0.2,0.3-0.2,0.6-0.2,0.9
	c0,0.9,0.8,1.7,1.7,1.7c0.9,0,1.7-0.8,1.7-1.7S14.9,6.1,14,6.1c-0.4,0-0.8,0.1-1.1,0.4C12.8,6.5,12.7,6.6,12.6,6.6z"/>
<path d="M77.7,47.8c-2.1,0-3.9-1.7-3.9-3.9c0-0.4,0.1-0.8,0.2-1.2c0.1-0.2,0.2-0.4,0.4-0.5c0-0.2,0.1-0.5,0.2-0.6
	c0.7-0.9,1.9-1.5,3-1.5c2.1,0,3.9,1.7,3.9,3.9C81.6,46,79.9,47.8,77.7,47.8z M76,42.9c0,0.1,0,0.2-0.1,0.3c-0.1,0.2-0.1,0.4-0.1,0.6
	c0,1,0.8,1.9,1.9,1.9c1,0,1.9-0.8,1.9-1.9c0-1-0.8-1.9-1.9-1.9c-0.6,0-1.1,0.3-1.5,0.7C76.2,42.8,76.1,42.9,76,42.9z"/>
<path d="M88,91.3c-1.6,0-3-1.3-3-3c0-1.6,1.3-3,3-3s3,1.3,3,3C91,89.9,89.7,91.3,88,91.3z M88,87.3c-0.5,0-1,0.4-1,1
	c0,0.6,0.4,1,1,1s1-0.4,1-1C89,87.7,88.5,87.3,88,87.3z"/>
<path d="M37.5,85.8c-1.6,0-3-1.3-3-3s1.3-3,3-3c1.7,0,3,1.3,3,3S39.1,85.8,37.5,85.8z M37.5,81.9c-0.5,0-1,0.4-1,1c0,0.6,0.4,1,1,1
	s1-0.4,1-1C38.5,82.3,38,81.9,37.5,81.9z"/>
<path d="M62.6,10c-1.6,0-3-1.3-3-3s1.3-3,3-3c1.7,0,3,1.3,3,3S64.3,10,62.6,10z M62.6,6.1c-0.5,0-1,0.4-1,1s0.4,1,1,1s1-0.4,1-1
	S63.2,6.1,62.6,6.1z"/>
</svg>
