<?xml version="1.0" encoding="utf-8"?>
<!-- Generator: Adobe Illustrator 23.0.1, SVG Export Plug-In . SVG Version: 6.00 Build 0)  -->
<svg version="1.1" id="Layer_1" xmlns="http://www.w3.org/2000/svg" xmlns:xlink="http://www.w3.org/1999/xlink" x="0px" y="0px"
	 viewBox="0 0 80.1 80" enable-background="new 0 0 80.1 80" xml:space="preserve">
<path d="M25.3,38.2v8.4c0,3,2.5,5.5,5.5,5.5h8.4c3,0,5.5-2.5,5.5-5.5v-8.4c0-3-2.5-5.5-5.5-5.5h-8.4C27.7,32.7,25.3,35.1,25.3,38.2z
	 M27.3,38.2c0-1.9,1.6-3.5,3.5-3.5h8.4c1.9,0,3.5,1.6,3.5,3.5v8.4c0,1.9-1.6,3.5-3.5,3.5h-8.4c-1.9,0-3.5-1.6-3.5-3.5V38.2z"/>
<path d="M29.4,42.4c0,3.1,2.5,5.5,5.5,5.5s5.5-2.5,5.5-5.5S38,36.8,35,36.8S29.4,39.3,29.4,42.4z M36,45.8V39
	c1.5,0.4,2.5,1.8,2.5,3.4S37.4,45.3,36,45.8z M31.4,42.4c0-1.6,1.1-2.9,2.5-3.4v6.8C32.5,45.3,31.4,44,31.4,42.4z"/>
<path d="M25.3,60.8v8.4c0,3,2.5,5.5,5.5,5.5h8.4c3,0,5.5-2.5,5.5-5.5v-8.4c0-3-2.5-5.5-5.5-5.5h-8.4C27.7,55.3,25.3,57.7,25.3,60.8z
	 M27.3,60.8c0-1.9,1.6-3.5,3.5-3.5h8.4c1.9,0,3.5,1.6,3.5,3.5v8.4c0,1.9-1.6,3.5-3.5,3.5h-8.4c-1.9,0-3.5-1.6-3.5-3.5V60.8z"/>
<path d="M29.4,65c0,3.1,2.5,5.5,5.5,5.5s5.5-2.5,5.5-5.5S38,59.4,35,59.4S29.4,61.9,29.4,65z M36,68.3v-6.8c1.5,0.4,2.5,1.8,2.5,3.4
	S37.4,67.9,36,68.3z M31.4,65c0-1.6,1.1-2.9,2.5-3.4v6.8C32.5,67.9,31.4,66.6,31.4,65z"/>
<path d="M54.1,33.1c-3.5,0-6.4,2.9-6.4,6.4s2.9,6.4,6.4,6.4c3.5,0,6.4-2.9,6.4-6.4S57.6,33.1,54.1,33.1z M54.1,35.1
	c2.4,0,4.4,2,4.4,4.4s-2,4.4-4.4,4.4c-2.4,0-4.4-2-4.4-4.4S51.6,35.1,54.1,35.1z"/>
<path d="M54.1,36.6c-1.6,0-2.9,1.3-2.9,2.9s1.3,2.9,2.9,2.9s2.9-1.3,2.9-2.9S55.6,36.6,54.1,36.6z M54.1,38.6c0.5,0,0.9,0.4,0.9,0.9
	s-0.4,0.9-0.9,0.9c-0.5,0-0.9-0.4-0.9-0.9S53.6,38.6,54.1,38.6z"/>
<path d="M47.6,53.9c0,3.5,2.9,6.4,6.4,6.4c3.5,0,6.4-2.9,6.4-6.4s-2.9-6.4-6.4-6.4C50.5,47.5,47.6,50.4,47.6,53.9z M49.6,53.9
	c0-2.4,2-4.4,4.4-4.4c2.4,0,4.4,2,4.4,4.4s-2,4.4-4.4,4.4S49.6,56.3,49.6,53.9z"/>
<path d="M51.2,53.9c0,1.6,1.3,2.9,2.9,2.9s2.9-1.3,2.9-2.9S55.6,51,54.1,51C52.5,51,51.2,52.3,51.2,53.9z M53.2,53.9
	c0-0.5,0.4-0.9,0.9-0.9c0.5,0,0.9,0.4,0.9,0.9c0,0.5-0.4,0.9-0.9,0.9C53.6,54.8,53.2,54.4,53.2,53.9z"/>
<path d="M47.6,68.3c0,3.5,2.9,6.4,6.4,6.4c3.5,0,6.4-2.9,6.4-6.4s-2.9-6.4-6.4-6.4C50.5,61.9,47.6,64.7,47.6,68.3z M49.6,68.3
	c0-2.4,2-4.4,4.4-4.4c2.4,0,4.4,2,4.4,4.4s-2,4.4-4.4,4.4C51.6,72.7,49.6,70.7,49.6,68.3z"/>
<path d="M51.2,68.3c0,1.6,1.3,2.9,2.9,2.9s2.9-1.3,2.9-2.9c0-1.6-1.3-2.9-2.9-2.9C52.5,65.4,51.2,66.7,51.2,68.3z M53.2,68.3
	c0-0.5,0.4-0.9,0.9-0.9c0.5,0,0.9,0.4,0.9,0.9s-0.4,0.9-0.9,0.9C53.6,69.1,53.2,68.8,53.2,68.3z"/>
<path d="M74.8,39.5c0-3.5-2.9-6.4-6.4-6.4S62,36,62,39.5s2.9,6.4,6.4,6.4S74.8,43,74.8,39.5z M72.8,39.5c0,2.4-2,4.4-4.4,4.4
	s-4.4-2-4.4-4.4s2-4.4,4.4-4.4S72.8,37.1,72.8,39.5z"/>
<path d="M71.3,39.5c0-1.6-1.3-2.9-2.9-2.9s-2.9,1.3-2.9,2.9s1.3,2.9,2.9,2.9S71.3,41.1,71.3,39.5z M69.3,39.5c0,0.5-0.4,0.9-0.9,0.9
	s-0.9-0.4-0.9-0.9s0.4-0.9,0.9-0.9S69.3,39,69.3,39.5z"/>
<path d="M74.8,53.9c0-3.5-2.9-6.4-6.4-6.4S62,50.4,62,53.9c0,3.5,2.9,6.4,6.4,6.4S74.8,57.4,74.8,53.9z M72.8,53.9
	c0,2.4-2,4.4-4.4,4.4s-4.4-2-4.4-4.4s2-4.4,4.4-4.4S72.8,51.5,72.8,53.9z"/>
<path d="M71.3,53.9c0-1.6-1.3-2.9-2.9-2.9s-2.9,1.3-2.9,2.9s1.3,2.9,2.9,2.9S71.3,55.5,71.3,53.9z M69.3,53.9c0,0.5-0.4,0.9-0.9,0.9
	s-0.9-0.4-0.9-0.9S68,53,68.4,53S69.3,53.4,69.3,53.9z"/>
<path d="M74.8,68.3c0-3.5-2.9-6.4-6.4-6.4S62,64.7,62,68.3s2.9,6.4,6.4,6.4S74.8,71.8,74.8,68.3z M72.8,68.3c0,2.4-2,4.4-4.4,4.4
	s-4.4-2-4.4-4.4s2-4.4,4.4-4.4S72.8,65.8,72.8,68.3z"/>
<path d="M71.3,68.3c0-1.6-1.3-2.9-2.9-2.9s-2.9,1.3-2.9,2.9c0,1.6,1.3,2.9,2.9,2.9S71.3,69.9,71.3,68.3z M69.3,68.3
	c0,0.5-0.4,0.9-0.9,0.9s-0.9-0.4-0.9-0.9c0-0.5,0.4-0.9,0.9-0.9S69.3,67.8,69.3,68.3z"/>
<path d="M20.4,1v78c0,0.6,0.4,1,1,1h57.6c0.6,0,1-0.4,1-1V1c0-0.6-0.4-1-1-1H21.4C20.9,0,20.4,0.4,20.4,1z M22.4,2h55.6v76H22.4V2z"
	/>
<path d="M0,79c0,0.6,0.4,1,1,1h15.6c0.6,0,1-0.4,1-1V1c0-0.6-0.4-1-1-1H1C0.4,0,0,0.4,0,1V79z M15.6,2v22.3l-3.7,4.2V8.1
	c0-0.6-0.4-1-1-1s-1,0.4-1,1v22.8l-2.2,2.6V8.1c0-0.6-0.4-1-1-1s-1,0.4-1,1v27.7L2,40V2H15.6z M2,78V43l13.6-15.6V78H2z"/>
<path d="M73.6,16c0-0.3,0-2.9-1.3-4.6c1.4-1.7,1.4-4.3,1.3-4.6c0-0.5-0.4-0.9-0.9-1c-2.8-0.3-4.6,2-5.5,3.7C63.9,6,59,5.8,58.7,5.8
	c-2-0.3-6.6,0.5-8.4,5.3c-0.1,0.2-0.1,0.4,0,0.7c0.6,1.8,3,5.3,8.4,5.3c0,0,0,0,0,0c0.3,0,5.2-0.2,8.5-3.7c0.8,1.6,2.4,3.7,5,3.7
	c0.1,0,0.3,0,0.4,0C73.2,17,73.6,16.6,73.6,16z M58.1,7.8c0.5,0.9,2,3.9,0,7.2c-3.9-0.2-5.4-2.7-5.8-3.6C53.8,8.1,56.9,7.7,58.1,7.8
	z M66.2,11.4c-1.7,2.1-4.1,3-5.8,3.3c1.1-2.7,0.6-5.2,0-6.7C62.1,8.4,64.6,9.3,66.2,11.4z M71.5,7.9c-0.1,1-0.5,2.2-1.3,2.7
	c-0.3,0.2-0.5,0.5-0.5,0.8s0.2,0.7,0.5,0.8c0.8,0.5,1.1,1.7,1.3,2.7c-1.7-0.5-2.7-2.7-3-3.5C68.9,10.6,69.8,8.4,71.5,7.9z"/>
<path d="M48.3,16c0-0.3,0-2.9-1.3-4.6c1.4-1.7,1.4-4.3,1.3-4.6c0-0.5-0.4-0.9-0.9-1c-2.8-0.3-4.6,2-5.5,3.7
	c-3.3-3.5-8.3-3.7-8.5-3.7c-2-0.3-6.6,0.5-8.4,5.3c-0.1,0.2-0.1,0.4,0,0.7c0.6,1.8,3,5.3,8.4,5.3c0,0,0,0,0,0c0.3,0,5.2-0.2,8.5-3.7
	c0.8,1.6,2.4,3.7,5,3.7c0.1,0,0.3,0,0.4,0C47.9,17,48.3,16.6,48.3,16z M32.8,7.8c0.5,0.9,2,3.9,0,7.3c-3.9-0.2-5.4-2.7-5.8-3.6
	C28.5,8,31.6,7.7,32.8,7.8z M40.9,11.4c-1.7,2.1-4.1,3-5.8,3.3c1.1-2.7,0.6-5.2,0-6.7C36.8,8.4,39.3,9.3,40.9,11.4z M46.2,7.9
	c-0.1,1-0.5,2.2-1.3,2.7c-0.3,0.2-0.5,0.5-0.5,0.8s0.2,0.7,0.5,0.8c0.8,0.5,1.1,1.7,1.3,2.7c-1.7-0.5-2.7-2.7-3-3.5
	C43.5,10.6,44.5,8.4,46.2,7.9z"/>
<path d="M73.6,29.4c0-0.3,0-2.9-1.3-4.6c1.4-1.7,1.4-4.3,1.3-4.6c0-0.5-0.4-0.9-0.9-1c-2.8-0.3-4.6,2-5.5,3.7
	c-3.3-3.5-8.3-3.7-8.5-3.7c-2-0.3-6.6,0.5-8.4,5.3c-0.1,0.2-0.1,0.4,0,0.7c0.6,1.8,3,5.3,8.4,5.3c0,0,0,0,0,0c0.3,0,5.2-0.2,8.5-3.7
	c0.8,1.6,2.4,3.7,5,3.7c0.1,0,0.3,0,0.4,0C73.2,30.3,73.6,29.9,73.6,29.4z M58.1,21.1c0.5,0.9,2,3.9,0,7.3c-3.9-0.2-5.4-2.7-5.8-3.6
	C53.8,21.4,56.9,21.1,58.1,21.1z M66.2,24.7c-1.7,2.1-4.1,3-5.8,3.4c1.1-2.7,0.6-5.2,0-6.7C62.1,21.7,64.6,22.6,66.2,24.7z
	 M71.5,21.2c-0.1,1-0.5,2.2-1.3,2.7c-0.3,0.2-0.5,0.5-0.5,0.8s0.2,0.7,0.5,0.8c0.8,0.5,1.1,1.7,1.3,2.7c-1.7-0.5-2.7-2.7-3-3.5
	C68.9,23.9,69.8,21.7,71.5,21.2z"/>
<path d="M48.3,29.4c0-0.3,0-2.9-1.3-4.6c1.4-1.7,1.4-4.3,1.3-4.6c0-0.5-0.4-0.9-0.9-1c-2.8-0.3-4.6,2-5.5,3.7
	c-3.3-3.5-8.3-3.7-8.5-3.7c-2-0.3-6.6,0.5-8.4,5.3c-0.1,0.2-0.1,0.4,0,0.7c0.6,1.8,3,5.3,8.4,5.3c0,0,0,0,0,0c0.3,0,5.2-0.2,8.5-3.7
	c0.8,1.6,2.4,3.7,5,3.7c0.1,0,0.3,0,0.4,0C47.9,30.3,48.3,29.9,48.3,29.4z M32.8,21.1c0.5,0.9,2,3.9,0,7.3c-3.9-0.2-5.4-2.7-5.8-3.6
	C28.5,21.4,31.6,21.1,32.8,21.1z M40.9,24.7c-1.7,2.1-4.1,3-5.8,3.4c1.1-2.7,0.6-5.2,0-6.7C36.8,21.7,39.3,22.6,40.9,24.7z
	 M46.2,21.2c-0.1,1-0.5,2.2-1.3,2.7c-0.3,0.2-0.5,0.5-0.5,0.8s0.2,0.7,0.5,0.8c0.8,0.5,1.1,1.7,1.3,2.7c-1.7-0.5-2.7-2.7-3-3.5
	C43.5,23.9,44.5,21.7,46.2,21.2z"/>
</svg>
